<svg width="480" height="441" viewBox="0 0 480 441" fill="none" xmlns="http://www.w3.org/2000/svg">
<g clip-path="url(#clip0)">
<path d="M28.9772 44.2825L135.779 176.799" stroke="#505050" stroke-width="0.511923"/>
<path d="M28.9772 77.4114L135.779 176.799Z" fill="black"/>
<path d="M28.9772 77.4114L135.779 176.799" stroke="#505050" stroke-width="0.511923"/>
<path d="M28.9772 110.541L135.779 176.799Z" fill="black"/>
<path d="M28.9772 110.541L135.779 176.799" stroke="#505050" stroke-width="0.511923"/>
<path d="M28.9772 143.669L135.779 176.799Z" fill="black"/>
<path d="M28.9772 143.669L135.779 176.799" stroke="#505050" stroke-width="0.511923"/>
<path d="M28.9772 176.799H135.779Z" fill="black"/>
<path d="M28.9772 176.799H135.779" stroke="#505050" stroke-width="0.511923"/>
<path d="M28.9772 209.928L135.779 176.799Z" fill="black"/>
<path d="M28.9772 209.928L135.779 176.799" stroke="#505050" stroke-width="0.511923"/>
<path d="M28.9772 243.057L135.779 176.799Z" fill="black"/>
<path d="M28.9772 243.057L135.779 176.799" stroke="#505050" stroke-width="0.511923"/>
<path d="M28.9772 276.186L135.779 176.799Z" fill="black"/>
<path d="M28.9772 276.186L135.779 176.799" stroke="#505050" stroke-width="0.511923"/>
<path d="M135.779 143.669L242.581 209.928Z" fill="black"/>
<path d="M135.779 143.669L242.581 209.928" stroke="#505050" stroke-width="0.511923"/>
<path d="M135.779 143.669L242.581 243.057Z" fill="black"/>
<path d="M135.779 143.669L242.581 243.057" stroke="#505050" stroke-width="0.511923"/>
<path d="M135.779 176.799L242.581 209.928Z" fill="black"/>
<path d="M135.779 176.799L242.581 209.928" stroke="#505050" stroke-width="0.511923"/>
<path d="M135.779 176.799L242.581 243.057Z" fill="black"/>
<path d="M135.779 176.799L242.581 243.057" stroke="#505050" stroke-width="0.511923"/>
<path d="M28.9772 44.2825L135.779 143.67Z" fill="black"/>
<path d="M28.9772 44.2825L135.779 143.67" stroke="#505050" stroke-width="0.511923"/>
<path d="M28.9772 77.4114L135.779 143.67Z" fill="black"/>
<path d="M28.9772 77.4114L135.779 143.67" stroke="#505050" stroke-width="0.511923"/>
<path d="M28.9772 110.541L135.779 143.67Z" fill="black"/>
<path d="M28.9772 110.541L135.779 143.67" stroke="#505050" stroke-width="0.511923"/>
<path d="M28.9772 143.669H135.779Z" fill="black"/>
<path d="M28.9772 143.669H135.779" stroke="#505050" stroke-width="0.511923"/>
<path d="M28.9772 176.799L135.779 143.669Z" fill="black"/>
<path d="M28.9772 176.799L135.779 143.669" stroke="#505050" stroke-width="0.511923"/>
<path d="M28.9772 209.928L135.779 143.669Z" fill="black"/>
<path d="M28.9772 209.928L135.779 143.669" stroke="#505050" stroke-width="0.511923"/>
<path d="M28.9772 243.057L135.779 143.669Z" fill="black"/>
<path d="M28.9772 243.057L135.779 143.669" stroke="#505050" stroke-width="0.511923"/>
<path d="M28.9772 276.186L135.779 143.669Z" fill="black"/>
<path d="M28.9772 276.186L135.779 143.669" stroke="#505050" stroke-width="0.511923"/>
<path d="M28.9772 44.2825L135.779 209.928Z" fill="black"/>
<path d="M28.9772 44.2825L135.779 209.928" stroke="#505050" stroke-width="0.511923"/>
<path d="M28.9772 44.2825L135.779 243.057Z" fill="black"/>
<path d="M28.9772 44.2825L135.779 243.057" stroke="#505050" stroke-width="0.511923"/>
<path d="M28.9772 77.4114L135.779 209.928Z" fill="black"/>
<path d="M28.9772 77.4114L135.779 209.928" stroke="#505050" stroke-width="0.511923"/>
<path d="M28.9772 77.4114L135.779 243.057Z" fill="black"/>
<path d="M28.9772 77.4114L135.779 243.057" stroke="#505050" stroke-width="0.511923"/>
<path d="M28.9772 110.541L135.779 209.928Z" fill="black"/>
<path d="M28.9772 110.541L135.779 209.928" stroke="#505050" stroke-width="0.511923"/>
<path d="M28.9772 110.541L135.779 243.057Z" fill="black"/>
<path d="M28.9772 110.541L135.779 243.057" stroke="#505050" stroke-width="0.511923"/>
<path d="M28.9772 143.669L135.779 209.928Z" fill="black"/>
<path d="M28.9772 143.669L135.779 209.928" stroke="#505050" stroke-width="0.511923"/>
<path d="M28.9772 143.669L135.779 243.057Z" fill="black"/>
<path d="M28.9772 143.669L135.779 243.057" stroke="#505050" stroke-width="0.511923"/>
<path d="M28.9772 176.799L135.779 209.928Z" fill="black"/>
<path d="M28.9772 176.799L135.779 209.928" stroke="#505050" stroke-width="0.511923"/>
<path d="M28.9772 176.799L135.779 243.057Z" fill="black"/>
<path d="M28.9772 176.799L135.779 243.057" stroke="#505050" stroke-width="0.511923"/>
<path d="M28.9772 209.927H135.779Z" fill="black"/>
<path d="M28.9772 209.927H135.779" stroke="#505050" stroke-width="0.511923"/>
<path d="M28.9772 209.927L135.779 243.057Z" fill="black"/>
<path d="M28.9772 209.927L135.779 243.057" stroke="#505050" stroke-width="0.511923"/>
<path d="M28.9772 243.057L135.779 209.927Z" fill="black"/>
<path d="M28.9772 243.057L135.779 209.927" stroke="#505050" stroke-width="0.511923"/>
<path d="M28.9772 243.057H135.779Z" fill="black"/>
<path d="M28.9772 243.057H135.779" stroke="#505050" stroke-width="0.511923"/>
<path d="M28.9772 276.186L135.779 209.927Z" fill="black"/>
<path d="M28.9772 276.186L135.779 209.927" stroke="#505050" stroke-width="0.511923"/>
<path d="M28.9772 276.186L135.779 243.057Z" fill="black"/>
<path d="M28.9772 276.186L135.779 243.057" stroke="#505050" stroke-width="0.511923"/>
<path d="M135.779 209.927H242.581Z" fill="black"/>
<path d="M135.779 209.927H242.581" stroke="#505050" stroke-width="0.511923"/>
<path d="M135.779 209.927L242.581 243.057Z" fill="black"/>
<path d="M135.779 209.927L242.581 243.057" stroke="#505050" stroke-width="0.511923"/>
<path d="M135.779 243.057L242.581 209.927Z" fill="black"/>
<path d="M135.779 243.057L242.581 209.927" stroke="#505050" stroke-width="0.511923"/>
<path d="M135.779 243.057H242.581Z" fill="black"/>
<path d="M135.779 243.057H242.581" stroke="#505050" stroke-width="0.511923"/>
<path d="M242.581 209.928L349.383 143.669Z" fill="black"/>
<path d="M242.581 209.928L349.383 143.669" stroke="#505050" stroke-width="0.511923"/>
<path d="M242.581 209.928L349.383 176.799Z" fill="black"/>
<path d="M242.581 209.928L349.383 176.799" stroke="#505050" stroke-width="0.511923"/>
<path d="M242.581 209.927H349.383Z" fill="black"/>
<path d="M242.581 209.927H349.383" stroke="#505050" stroke-width="0.511923"/>
<path d="M242.581 209.927L349.383 243.057Z" fill="black"/>
<path d="M242.581 209.927L349.383 243.057" stroke="#505050" stroke-width="0.511923"/>
<path d="M242.581 243.057L349.383 143.669Z" fill="black"/>
<path d="M242.581 243.057L349.383 143.669" stroke="#505050" stroke-width="0.511923"/>
<path d="M242.581 243.057L349.383 176.799Z" fill="black"/>
<path d="M242.581 243.057L349.383 176.799" stroke="#505050" stroke-width="0.511923"/>
<path d="M242.581 243.057L349.383 209.927Z" fill="black"/>
<path d="M242.581 243.057L349.383 209.927" stroke="#505050" stroke-width="0.511923"/>
<path d="M242.581 243.057H349.383Z" fill="black"/>
<path d="M242.581 243.057H349.383" stroke="#505050" stroke-width="0.511923"/>
<path d="M349.383 143.67L456.185 44.2825Z" fill="black"/>
<path d="M349.383 143.67L456.185 44.2825" stroke="#505050" stroke-width="0.511923"/>
<path d="M349.383 143.67L456.185 77.4114Z" fill="black"/>
<path d="M349.383 143.67L456.185 77.4114" stroke="#505050" stroke-width="0.511923"/>
<path d="M349.383 143.67L456.185 110.541Z" fill="black"/>
<path d="M349.383 143.67L456.185 110.541" stroke="#505050" stroke-width="0.511923"/>
<path d="M349.383 143.669H456.185Z" fill="black"/>
<path d="M349.383 143.669H456.185" stroke="#505050" stroke-width="0.511923"/>
<path d="M349.383 143.669L456.185 176.799Z" fill="black"/>
<path d="M349.383 143.669L456.185 176.799" stroke="#505050" stroke-width="0.511923"/>
<path d="M349.383 143.669L456.185 209.928Z" fill="black"/>
<path d="M349.383 143.669L456.185 209.928" stroke="#505050" stroke-width="0.511923"/>
<path d="M349.383 143.669L456.185 243.057Z" fill="black"/>
<path d="M349.383 143.669L456.185 243.057" stroke="#505050" stroke-width="0.511923"/>
<path d="M349.383 143.669L456.185 276.186Z" fill="black"/>
<path d="M349.383 143.669L456.185 276.186" stroke="#505050" stroke-width="0.511923"/>
<path d="M349.383 176.799L456.185 44.2825Z" fill="black"/>
<path d="M349.383 176.799L456.185 44.2825" stroke="#505050" stroke-width="0.511923"/>
<path d="M349.383 176.799L456.185 77.4114Z" fill="black"/>
<path d="M349.383 176.799L456.185 77.4114" stroke="#505050" stroke-width="0.511923"/>
<path d="M349.383 176.799L456.185 110.541Z" fill="black"/>
<path d="M349.383 176.799L456.185 110.541" stroke="#505050" stroke-width="0.511923"/>
<path d="M349.383 176.799L456.185 143.669Z" fill="black"/>
<path d="M349.383 176.799L456.185 143.669" stroke="#505050" stroke-width="0.511923"/>
<path d="M349.383 176.799H456.185Z" fill="black"/>
<path d="M349.383 176.799H456.185" stroke="#505050" stroke-width="0.511923"/>
<path d="M349.383 176.799L456.185 209.928Z" fill="black"/>
<path d="M349.383 176.799L456.185 209.928" stroke="#505050" stroke-width="0.511923"/>
<path d="M349.383 176.799L456.185 243.057Z" fill="black"/>
<path d="M349.383 176.799L456.185 243.057" stroke="#505050" stroke-width="0.511923"/>
<path d="M349.383 176.799L456.185 276.186Z" fill="black"/>
<path d="M349.383 176.799L456.185 276.186" stroke="#505050" stroke-width="0.511923"/>
<path d="M349.383 209.928L456.185 44.2825Z" fill="black"/>
<path d="M349.383 209.928L456.185 44.2825" stroke="#505050" stroke-width="0.511923"/>
<path d="M349.383 209.928L456.185 77.4114Z" fill="black"/>
<path d="M349.383 209.928L456.185 77.4114" stroke="#505050" stroke-width="0.511923"/>
<path d="M349.383 209.928L456.185 110.541Z" fill="black"/>
<path d="M349.383 209.928L456.185 110.541" stroke="#505050" stroke-width="0.511923"/>
<path d="M349.383 209.928L456.185 143.669Z" fill="black"/>
<path d="M349.383 209.928L456.185 143.669" stroke="#505050" stroke-width="0.511923"/>
<path d="M349.383 209.928L456.185 176.799Z" fill="black"/>
<path d="M349.383 209.928L456.185 176.799" stroke="#505050" stroke-width="0.511923"/>
<path d="M349.383 209.927H456.185Z" fill="black"/>
<path d="M349.383 209.927H456.185" stroke="#505050" stroke-width="0.511923"/>
<path d="M349.383 209.927L456.185 243.057Z" fill="black"/>
<path d="M349.383 209.927L456.185 243.057" stroke="#505050" stroke-width="0.511923"/>
<path d="M349.383 209.927L456.185 276.186Z" fill="black"/>
<path d="M349.383 209.927L456.185 276.186" stroke="#505050" stroke-width="0.511923"/>
<path d="M349.383 243.057L456.185 44.2825Z" fill="black"/>
<path d="M349.383 243.057L456.185 44.2825" stroke="#505050" stroke-width="0.511923"/>
<path d="M349.383 243.057L456.185 77.4114Z" fill="black"/>
<path d="M349.383 243.057L456.185 77.4114" stroke="#505050" stroke-width="0.511923"/>
<path d="M349.383 243.057L456.185 110.541Z" fill="black"/>
<path d="M349.383 243.057L456.185 110.541" stroke="#505050" stroke-width="0.511923"/>
<path d="M349.383 243.057L456.185 143.669Z" fill="black"/>
<path d="M349.383 243.057L456.185 143.669" stroke="#505050" stroke-width="0.511923"/>
<path d="M349.383 243.057L456.185 176.799Z" fill="black"/>
<path d="M349.383 243.057L456.185 176.799" stroke="#505050" stroke-width="0.511923"/>
<path d="M349.383 243.057L456.185 209.927Z" fill="black"/>
<path d="M349.383 243.057L456.185 209.927" stroke="#505050" stroke-width="0.511923"/>
<path d="M349.383 243.057H456.185Z" fill="black"/>
<path d="M349.383 243.057H456.185" stroke="#505050" stroke-width="0.511923"/>
<path d="M349.383 243.057L456.185 276.186Z" fill="black"/>
<path d="M349.383 243.057L456.185 276.186" stroke="#505050" stroke-width="0.511923"/>
<path d="M28.9772 309.315L135.779 143.669Z" fill="black"/>
<path d="M28.9772 309.315L135.779 143.669" stroke="#505050" stroke-width="0.511923"/>
<path d="M28.9772 309.315L135.779 176.799Z" fill="black"/>
<path d="M28.9772 309.315L135.779 176.799" stroke="#505050" stroke-width="0.511923"/>
<path d="M28.9772 309.315L135.779 209.927Z" fill="black"/>
<path d="M28.9772 309.315L135.779 209.927" stroke="#505050" stroke-width="0.511923"/>
<path d="M28.9772 309.315L135.779 243.057Z" fill="black"/>
<path d="M28.9772 309.315L135.779 243.057" stroke="#505050" stroke-width="0.511923"/>
<path d="M28.9772 342.444L135.779 143.669Z" fill="black"/>
<path d="M28.9772 342.444L135.779 143.669" stroke="#505050" stroke-width="0.511923"/>
<path d="M28.9772 342.444L135.779 176.799Z" fill="black"/>
<path d="M28.9772 342.444L135.779 176.799" stroke="#505050" stroke-width="0.511923"/>
<path d="M28.9772 342.444L135.779 209.927Z" fill="black"/>
<path d="M28.9772 342.444L135.779 209.927" stroke="#505050" stroke-width="0.511923"/>
<path d="M28.9772 342.444L135.779 243.057Z" fill="black"/>
<path d="M28.9772 342.444L135.779 243.057" stroke="#505050" stroke-width="0.511923"/>
<path d="M28.9772 44.2825L135.779 276.186Z" fill="black"/>
<path d="M28.9772 44.2825L135.779 276.186" stroke="#505050" stroke-width="0.511923"/>
<path d="M28.9772 44.2825L135.779 309.315Z" fill="black"/>
<path d="M28.9772 44.2825L135.779 309.315" stroke="#505050" stroke-width="0.511923"/>
<path d="M28.9772 77.4114L135.779 276.186Z" fill="black"/>
<path d="M28.9772 77.4114L135.779 276.186" stroke="#505050" stroke-width="0.511923"/>
<path d="M28.9772 77.4114L135.779 309.315Z" fill="black"/>
<path d="M28.9772 77.4114L135.779 309.315" stroke="#505050" stroke-width="0.511923"/>
<path d="M28.9772 110.541L135.779 276.186Z" fill="black"/>
<path d="M28.9772 110.541L135.779 276.186" stroke="#505050" stroke-width="0.511923"/>
<path d="M28.9772 110.541L135.779 309.315Z" fill="black"/>
<path d="M28.9772 110.541L135.779 309.315" stroke="#505050" stroke-width="0.511923"/>
<path d="M28.9772 143.669L135.779 276.186Z" fill="black"/>
<path d="M28.9772 143.669L135.779 276.186" stroke="#505050" stroke-width="0.511923"/>
<path d="M28.9772 143.669L135.779 309.315Z" fill="black"/>
<path d="M28.9772 143.669L135.779 309.315" stroke="#505050" stroke-width="0.511923"/>
<path d="M28.9772 176.799L135.779 276.186Z" fill="black"/>
<path d="M28.9772 176.799L135.779 276.186" stroke="#505050" stroke-width="0.511923"/>
<path d="M28.9772 176.799L135.779 309.315Z" fill="black"/>
<path d="M28.9772 176.799L135.779 309.315" stroke="#505050" stroke-width="0.511923"/>
<path d="M28.9772 209.927L135.779 276.186Z" fill="black"/>
<path d="M28.9772 209.927L135.779 276.186" stroke="#505050" stroke-width="0.511923"/>
<path d="M28.9772 209.927L135.779 309.315Z" fill="black"/>
<path d="M28.9772 209.927L135.779 309.315" stroke="#505050" stroke-width="0.511923"/>
<path d="M28.9772 243.057L135.779 276.186Z" fill="black"/>
<path d="M28.9772 243.057L135.779 276.186" stroke="#505050" stroke-width="0.511923"/>
<path d="M28.9772 243.057L135.779 309.315Z" fill="black"/>
<path d="M28.9772 243.057L135.779 309.315" stroke="#505050" stroke-width="0.511923"/>
<path d="M28.9772 276.186H135.779Z" fill="black"/>
<path d="M28.9772 276.186H135.779" stroke="#505050" stroke-width="0.511923"/>
<path d="M28.9772 276.186L135.779 309.315Z" fill="black"/>
<path d="M28.9772 276.186L135.779 309.315" stroke="#505050" stroke-width="0.511923"/>
<path d="M28.9772 309.315L135.779 276.186Z" fill="black"/>
<path d="M28.9772 309.315L135.779 276.186" stroke="#505050" stroke-width="0.511923"/>
<path d="M28.9772 309.315H135.779Z" fill="black"/>
<path d="M28.9772 309.315H135.779" stroke="#505050" stroke-width="0.511923"/>
<path d="M28.9772 342.444L135.779 276.186Z" fill="black"/>
<path d="M28.9772 342.444L135.779 276.186" stroke="#505050" stroke-width="0.511923"/>
<path d="M28.9772 342.444L135.779 309.315Z" fill="black"/>
<path d="M28.9772 342.444L135.779 309.315" stroke="#505050" stroke-width="0.511923"/>
<path d="M135.779 276.186L242.581 209.927Z" fill="black"/>
<path d="M135.779 276.186L242.581 209.927" stroke="#505050" stroke-width="0.511923"/>
<path d="M135.779 276.186L242.581 243.057Z" fill="black"/>
<path d="M135.779 276.186L242.581 243.057" stroke="#505050" stroke-width="0.511923"/>
<path d="M135.779 309.315L242.581 209.927Z" fill="black"/>
<path d="M135.779 309.315L242.581 209.927" stroke="#505050" stroke-width="0.511923"/>
<path d="M135.779 309.315L242.581 243.057Z" fill="black"/>
<path d="M135.779 309.315L242.581 243.057" stroke="#505050" stroke-width="0.511923"/>
<path d="M242.581 209.927L349.383 276.186Z" fill="black"/>
<path d="M242.581 209.927L349.383 276.186" stroke="#505050" stroke-width="0.511923"/>
<path d="M242.581 209.927L349.383 309.315Z" fill="black"/>
<path d="M242.581 209.927L349.383 309.315" stroke="#505050" stroke-width="0.511923"/>
<path d="M242.581 243.057L349.383 276.186Z" fill="black"/>
<path d="M242.581 243.057L349.383 276.186" stroke="#505050" stroke-width="0.511923"/>
<path d="M242.581 243.057L349.383 309.315Z" fill="black"/>
<path d="M242.581 243.057L349.383 309.315" stroke="#505050" stroke-width="0.511923"/>
<path d="M349.383 276.186L456.185 44.2825Z" fill="black"/>
<path d="M349.383 276.186L456.185 44.2825" stroke="#505050" stroke-width="0.511923"/>
<path d="M349.383 276.186L456.185 77.4114Z" fill="black"/>
<path d="M349.383 276.186L456.185 77.4114" stroke="#505050" stroke-width="0.511923"/>
<path d="M349.383 276.186L456.185 110.541Z" fill="black"/>
<path d="M349.383 276.186L456.185 110.541" stroke="#505050" stroke-width="0.511923"/>
<path d="M349.383 276.186L456.185 143.669Z" fill="black"/>
<path d="M349.383 276.186L456.185 143.669" stroke="#505050" stroke-width="0.511923"/>
<path d="M349.383 276.186L456.185 176.799Z" fill="black"/>
<path d="M349.383 276.186L456.185 176.799" stroke="#505050" stroke-width="0.511923"/>
<path d="M349.383 276.186L456.185 209.927Z" fill="black"/>
<path d="M349.383 276.186L456.185 209.927" stroke="#505050" stroke-width="0.511923"/>
<path d="M349.383 276.186L456.185 243.057Z" fill="black"/>
<path d="M349.383 276.186L456.185 243.057" stroke="#505050" stroke-width="0.511923"/>
<path d="M349.383 276.186H456.185Z" fill="black"/>
<path d="M349.383 276.186H456.185" stroke="#505050" stroke-width="0.511923"/>
<path d="M349.383 309.315L456.185 44.2825Z" fill="black"/>
<path d="M349.383 309.315L456.185 44.2825" stroke="#505050" stroke-width="0.511923"/>
<path d="M349.383 309.315L456.185 77.4114Z" fill="black"/>
<path d="M349.383 309.315L456.185 77.4114" stroke="#505050" stroke-width="0.511923"/>
<path d="M349.383 309.315L456.185 110.541Z" fill="black"/>
<path d="M349.383 309.315L456.185 110.541" stroke="#505050" stroke-width="0.511923"/>
<path d="M349.383 309.315L456.185 143.669Z" fill="black"/>
<path d="M349.383 309.315L456.185 143.669" stroke="#505050" stroke-width="0.511923"/>
<path d="M349.383 309.315L456.185 176.799Z" fill="black"/>
<path d="M349.383 309.315L456.185 176.799" stroke="#505050" stroke-width="0.511923"/>
<path d="M349.383 309.315L456.185 209.927Z" fill="black"/>
<path d="M349.383 309.315L456.185 209.927" stroke="#505050" stroke-width="0.511923"/>
<path d="M349.383 309.315L456.185 243.057Z" fill="black"/>
<path d="M349.383 309.315L456.185 243.057" stroke="#505050" stroke-width="0.511923"/>
<path d="M349.383 309.315L456.185 276.186Z" fill="black"/>
<path d="M349.383 309.315L456.185 276.186" stroke="#505050" stroke-width="0.511923"/>
<path d="M349.383 143.669L456.185 309.315Z" fill="black"/>
<path d="M349.383 143.669L456.185 309.315" stroke="#505050" stroke-width="0.511923"/>
<path d="M349.383 143.669L456.185 342.444Z" fill="black"/>
<path d="M349.383 143.669L456.185 342.444" stroke="#505050" stroke-width="0.511923"/>
<path d="M349.383 176.799L456.185 309.315Z" fill="black"/>
<path d="M349.383 176.799L456.185 309.315" stroke="#505050" stroke-width="0.511923"/>
<path d="M349.383 176.799L456.185 342.444Z" fill="black"/>
<path d="M349.383 176.799L456.185 342.444" stroke="#505050" stroke-width="0.511923"/>
<path d="M349.383 209.927L456.185 309.315Z" fill="black"/>
<path d="M349.383 209.927L456.185 309.315" stroke="#505050" stroke-width="0.511923"/>
<path d="M349.383 209.927L456.185 342.444Z" fill="black"/>
<path d="M349.383 209.927L456.185 342.444" stroke="#505050" stroke-width="0.511923"/>
<path d="M349.383 243.057L456.185 309.315Z" fill="black"/>
<path d="M349.383 243.057L456.185 309.315" stroke="#505050" stroke-width="0.511923"/>
<path d="M349.383 243.057L456.185 342.444Z" fill="black"/>
<path d="M349.383 243.057L456.185 342.444" stroke="#505050" stroke-width="0.511923"/>
<path d="M349.383 276.186L456.185 309.315Z" fill="black"/>
<path d="M349.383 276.186L456.185 309.315" stroke="#505050" stroke-width="0.511923"/>
<path d="M349.383 276.186L456.185 342.444Z" fill="black"/>
<path d="M349.383 276.186L456.185 342.444" stroke="#505050" stroke-width="0.511923"/>
<path d="M349.383 309.315H456.185Z" fill="black"/>
<path d="M349.383 309.315H456.185" stroke="#505050" stroke-width="0.511923"/>
<path d="M349.383 309.315L456.185 342.444Z" fill="black"/>
<path d="M349.383 309.315L456.185 342.444" stroke="#505050" stroke-width="0.511923"/>
<path d="M28.9772 375.573L135.779 143.669Z" fill="black"/>
<path d="M28.9772 375.573L135.779 143.669" stroke="#505050" stroke-width="0.511923"/>
<path d="M28.9772 375.573L135.779 176.799Z" fill="black"/>
<path d="M28.9772 375.573L135.779 176.799" stroke="#505050" stroke-width="0.511923"/>
<path d="M28.9772 375.573L135.779 209.927Z" fill="black"/>
<path d="M28.9772 375.573L135.779 209.927" stroke="#505050" stroke-width="0.511923"/>
<path d="M28.9772 375.573L135.779 243.057Z" fill="black"/>
<path d="M28.9772 375.573L135.779 243.057" stroke="#505050" stroke-width="0.511923"/>
<path d="M28.9772 375.573L135.779 276.186Z" fill="black"/>
<path d="M28.9772 375.573L135.779 276.186" stroke="#505050" stroke-width="0.511923"/>
<path d="M28.9772 375.573L135.779 309.315Z" fill="black"/>
<path d="M28.9772 375.573L135.779 309.315" stroke="#505050" stroke-width="0.511923"/>
<path d="M28.9772 408.702L135.779 143.669Z" fill="black"/>
<path d="M28.9772 408.702L135.779 143.669" stroke="#505050" stroke-width="0.511923"/>
<path d="M28.9772 408.702L135.779 176.799Z" fill="black"/>
<path d="M28.9772 408.702L135.779 176.799" stroke="#505050" stroke-width="0.511923"/>
<path d="M28.9772 408.702L135.779 209.927Z" fill="black"/>
<path d="M28.9772 408.702L135.779 209.927" stroke="#505050" stroke-width="0.511923"/>
<path d="M28.9772 408.702L135.779 243.057Z" fill="black"/>
<path d="M28.9772 408.702L135.779 243.057" stroke="#505050" stroke-width="0.511923"/>
<path d="M28.9772 408.702L135.779 276.186Z" fill="black"/>
<path d="M28.9772 408.702L135.779 276.186" stroke="#505050" stroke-width="0.511923"/>
<path d="M28.9772 408.702L135.779 309.315Z" fill="black"/>
<path d="M28.9772 408.702L135.779 309.315" stroke="#505050" stroke-width="0.511923"/>
<path d="M349.383 143.669L456.185 375.573Z" fill="black"/>
<path d="M349.383 143.669L456.185 375.573" stroke="#505050" stroke-width="0.511923"/>
<path d="M349.383 143.669L456.185 408.702Z" fill="black"/>
<path d="M349.383 143.669L456.185 408.702" stroke="#505050" stroke-width="0.511923"/>
<path d="M349.383 176.799L456.185 375.573Z" fill="black"/>
<path d="M349.383 176.799L456.185 375.573" stroke="#505050" stroke-width="0.511923"/>
<path d="M349.383 176.799L456.185 408.702Z" fill="black"/>
<path d="M349.383 176.799L456.185 408.702" stroke="#505050" stroke-width="0.511923"/>
<path d="M349.383 209.927L456.185 375.573Z" fill="black"/>
<path d="M349.383 209.927L456.185 375.573" stroke="#505050" stroke-width="0.511923"/>
<path d="M349.383 209.927L456.185 408.702Z" fill="black"/>
<path d="M349.383 209.927L456.185 408.702" stroke="#505050" stroke-width="0.511923"/>
<path d="M349.383 243.057L456.185 375.573Z" fill="black"/>
<path d="M349.383 243.057L456.185 375.573" stroke="#505050" stroke-width="0.511923"/>
<path d="M349.383 243.057L456.185 408.702Z" fill="black"/>
<path d="M349.383 243.057L456.185 408.702" stroke="#505050" stroke-width="0.511923"/>
<path d="M349.383 276.186L456.185 375.573Z" fill="black"/>
<path d="M349.383 276.186L456.185 375.573" stroke="#505050" stroke-width="0.511923"/>
<path d="M349.383 276.186L456.185 408.702Z" fill="black"/>
<path d="M349.383 276.186L456.185 408.702" stroke="#505050" stroke-width="0.511923"/>
<path d="M349.383 309.315L456.185 375.573Z" fill="black"/>
<path d="M349.383 309.315L456.185 375.573" stroke="#505050" stroke-width="0.511923"/>
<path d="M349.383 309.315L456.185 408.702Z" fill="black"/>
<path d="M349.383 309.315L456.185 408.702" stroke="#505050" stroke-width="0.511923"/>
<path d="M28.9772 52.5645C33.5497 52.5645 37.2565 48.8564 37.2565 44.2823C37.2565 39.7081 33.5497 36 28.9772 36C24.4047 36 20.698 39.7081 20.698 44.2823C20.698 48.8564 24.4047 52.5645 28.9772 52.5645Z" fill="white" stroke="#333333" stroke-width="1.02385"/>
<path d="M28.9772 85.6934C33.5497 85.6934 37.2565 81.9853 37.2565 77.4112C37.2565 72.837 33.5497 69.1289 28.9772 69.1289C24.4047 69.1289 20.698 72.837 20.698 77.4112C20.698 81.9853 24.4047 85.6934 28.9772 85.6934Z" fill="white" stroke="#333333" stroke-width="1.02385"/>
<path d="M28.9772 118.823C33.5497 118.823 37.2565 115.114 37.2565 110.54C37.2565 105.966 33.5497 102.258 28.9772 102.258C24.4047 102.258 20.698 105.966 20.698 110.54C20.698 115.114 24.4047 118.823 28.9772 118.823Z" fill="white" stroke="#333333" stroke-width="1.02385"/>
<path d="M28.9772 151.952C33.5497 151.952 37.2565 148.244 37.2565 143.669C37.2565 139.095 33.5497 135.387 28.9772 135.387C24.4047 135.387 20.698 139.095 20.698 143.669C20.698 148.244 24.4047 151.952 28.9772 151.952Z" fill="white" stroke="#333333" stroke-width="1.02385"/>
<path d="M28.9772 185.081C33.5497 185.081 37.2565 181.373 37.2565 176.799C37.2565 172.224 33.5497 168.516 28.9772 168.516C24.4047 168.516 20.698 172.224 20.698 176.799C20.698 181.373 24.4047 185.081 28.9772 185.081Z" fill="white" stroke="#333333" stroke-width="1.02385"/>
<path d="M28.9772 218.21C33.5497 218.21 37.2565 214.502 37.2565 209.928C37.2565 205.354 33.5497 201.646 28.9772 201.646C24.4047 201.646 20.698 205.354 20.698 209.928C20.698 214.502 24.4047 218.21 28.9772 218.21Z" fill="white" stroke="#333333" stroke-width="1.02385"/>
<path d="M28.9772 251.339C33.5497 251.339 37.2565 247.631 37.2565 243.057C37.2565 238.483 33.5497 234.774 28.9772 234.774C24.4047 234.774 20.698 238.483 20.698 243.057C20.698 247.631 24.4047 251.339 28.9772 251.339Z" fill="white" stroke="#333333" stroke-width="1.02385"/>
<path d="M28.9772 284.468C33.5497 284.468 37.2565 280.76 37.2565 276.186C37.2565 271.612 33.5497 267.904 28.9772 267.904C24.4047 267.904 20.698 271.612 20.698 276.186C20.698 280.76 24.4047 284.468 28.9772 284.468Z" fill="white" stroke="#333333" stroke-width="1.02385"/>
<path d="M28.9772 317.597C33.5497 317.597 37.2565 313.889 37.2565 309.315C37.2565 304.741 33.5497 301.033 28.9772 301.033C24.4047 301.033 20.698 304.741 20.698 309.315C20.698 313.889 24.4047 317.597 28.9772 317.597Z" fill="white" stroke="#333333" stroke-width="1.02385"/>
<path d="M28.9772 350.726C33.5497 350.726 37.2565 347.018 37.2565 342.444C37.2565 337.87 33.5497 334.162 28.9772 334.162C24.4047 334.162 20.698 337.87 20.698 342.444C20.698 347.018 24.4047 350.726 28.9772 350.726Z" fill="white" stroke="#333333" stroke-width="1.02385"/>
<path d="M28.9772 383.855C33.5497 383.855 37.2565 380.147 37.2565 375.573C37.2565 370.999 33.5497 367.291 28.9772 367.291C24.4047 367.291 20.698 370.999 20.698 375.573C20.698 380.147 24.4047 383.855 28.9772 383.855Z" fill="white" stroke="#333333" stroke-width="1.02385"/>
<path d="M28.9772 416.984C33.5497 416.984 37.2565 413.276 37.2565 408.702C37.2565 404.128 33.5497 400.42 28.9772 400.42C24.4047 400.42 20.698 404.128 20.698 408.702C20.698 413.276 24.4047 416.984 28.9772 416.984Z" fill="white" stroke="#333333" stroke-width="1.02385"/>
<path d="M135.779 151.952C140.352 151.952 144.058 148.244 144.058 143.669C144.058 139.095 140.352 135.387 135.779 135.387C131.207 135.387 127.5 139.095 127.5 143.669C127.5 148.244 131.207 151.952 135.779 151.952Z" fill="white" stroke="#333333" stroke-width="1.02385"/>
<path d="M135.779 185.081C140.352 185.081 144.058 181.373 144.058 176.799C144.058 172.224 140.352 168.516 135.779 168.516C131.207 168.516 127.5 172.224 127.5 176.799C127.5 181.373 131.207 185.081 135.779 185.081Z" fill="white" stroke="#333333" stroke-width="1.02385"/>
<path d="M135.779 218.21C140.352 218.21 144.058 214.502 144.058 209.928C144.058 205.354 140.352 201.646 135.779 201.646C131.207 201.646 127.5 205.354 127.5 209.928C127.5 214.502 131.207 218.21 135.779 218.21Z" fill="white" stroke="#333333" stroke-width="1.02385"/>
<path d="M135.779 251.339C140.352 251.339 144.058 247.631 144.058 243.057C144.058 238.483 140.352 234.774 135.779 234.774C131.207 234.774 127.5 238.483 127.5 243.057C127.5 247.631 131.207 251.339 135.779 251.339Z" fill="white" stroke="#333333" stroke-width="1.02385"/>
<path d="M135.779 284.468C140.352 284.468 144.058 280.76 144.058 276.186C144.058 271.612 140.352 267.904 135.779 267.904C131.207 267.904 127.5 271.612 127.5 276.186C127.5 280.76 131.207 284.468 135.779 284.468Z" fill="white" stroke="#333333" stroke-width="1.02385"/>
<path d="M135.779 317.597C140.352 317.597 144.058 313.889 144.058 309.315C144.058 304.741 140.352 301.033 135.779 301.033C131.207 301.033 127.5 304.741 127.5 309.315C127.5 313.889 131.207 317.597 135.779 317.597Z" fill="white" stroke="#333333" stroke-width="1.02385"/>
<path d="M242.581 218.21C247.154 218.21 250.86 214.502 250.86 209.928C250.86 205.354 247.154 201.646 242.581 201.646C238.009 201.646 234.302 205.354 234.302 209.928C234.302 214.502 238.009 218.21 242.581 218.21Z" fill="white" stroke="#333333" stroke-width="1.02385"/>
<path d="M242.581 251.339C247.154 251.339 250.86 247.631 250.86 243.057C250.86 238.483 247.154 234.774 242.581 234.774C238.009 234.774 234.302 238.483 234.302 243.057C234.302 247.631 238.009 251.339 242.581 251.339Z" fill="white" stroke="#333333" stroke-width="1.02385"/>
<path d="M349.383 151.952C353.956 151.952 357.662 148.244 357.662 143.669C357.662 139.095 353.956 135.387 349.383 135.387C344.811 135.387 341.104 139.095 341.104 143.669C341.104 148.244 344.811 151.952 349.383 151.952Z" fill="white" stroke="#333333" stroke-width="1.02385"/>
<path d="M349.383 185.081C353.956 185.081 357.662 181.373 357.662 176.799C357.662 172.224 353.956 168.516 349.383 168.516C344.811 168.516 341.104 172.224 341.104 176.799C341.104 181.373 344.811 185.081 349.383 185.081Z" fill="white" stroke="#333333" stroke-width="1.02385"/>
<path d="M349.383 218.21C353.956 218.21 357.662 214.502 357.662 209.928C357.662 205.354 353.956 201.646 349.383 201.646C344.811 201.646 341.104 205.354 341.104 209.928C341.104 214.502 344.811 218.21 349.383 218.21Z" fill="white" stroke="#333333" stroke-width="1.02385"/>
<path d="M349.383 251.339C353.956 251.339 357.662 247.631 357.662 243.057C357.662 238.483 353.956 234.774 349.383 234.774C344.811 234.774 341.104 238.483 341.104 243.057C341.104 247.631 344.811 251.339 349.383 251.339Z" fill="white" stroke="#333333" stroke-width="1.02385"/>
<path d="M349.383 284.468C353.956 284.468 357.662 280.76 357.662 276.186C357.662 271.612 353.956 267.904 349.383 267.904C344.811 267.904 341.104 271.612 341.104 276.186C341.104 280.76 344.811 284.468 349.383 284.468Z" fill="white" stroke="#333333" stroke-width="1.02385"/>
<path d="M349.383 317.597C353.956 317.597 357.662 313.889 357.662 309.315C357.662 304.741 353.956 301.033 349.383 301.033C344.811 301.033 341.104 304.741 341.104 309.315C341.104 313.889 344.811 317.597 349.383 317.597Z" fill="white" stroke="#333333" stroke-width="1.02385"/>
<path d="M456.185 52.5645C460.758 52.5645 464.464 48.8564 464.464 44.2823C464.464 39.7081 460.758 36 456.185 36C451.613 36 447.906 39.7081 447.906 44.2823C447.906 48.8564 451.613 52.5645 456.185 52.5645Z" fill="white" stroke="#333333" stroke-width="1.02385"/>
<path d="M456.185 85.6934C460.758 85.6934 464.464 81.9853 464.464 77.4112C464.464 72.837 460.758 69.1289 456.185 69.1289C451.613 69.1289 447.906 72.837 447.906 77.4112C447.906 81.9853 451.613 85.6934 456.185 85.6934Z" fill="white" stroke="#333333" stroke-width="1.02385"/>
<path d="M456.185 118.823C460.758 118.823 464.464 115.114 464.464 110.54C464.464 105.966 460.758 102.258 456.185 102.258C451.613 102.258 447.906 105.966 447.906 110.54C447.906 115.114 451.613 118.823 456.185 118.823Z" fill="white" stroke="#333333" stroke-width="1.02385"/>
<path d="M456.185 151.952C460.758 151.952 464.464 148.244 464.464 143.669C464.464 139.095 460.758 135.387 456.185 135.387C451.613 135.387 447.906 139.095 447.906 143.669C447.906 148.244 451.613 151.952 456.185 151.952Z" fill="white" stroke="#333333" stroke-width="1.02385"/>
<path d="M456.185 185.081C460.758 185.081 464.464 181.373 464.464 176.799C464.464 172.224 460.758 168.516 456.185 168.516C451.613 168.516 447.906 172.224 447.906 176.799C447.906 181.373 451.613 185.081 456.185 185.081Z" fill="white" stroke="#333333" stroke-width="1.02385"/>
<path d="M456.185 218.21C460.758 218.21 464.464 214.502 464.464 209.928C464.464 205.354 460.758 201.646 456.185 201.646C451.613 201.646 447.906 205.354 447.906 209.928C447.906 214.502 451.613 218.21 456.185 218.21Z" fill="white" stroke="#333333" stroke-width="1.02385"/>
<path d="M456.185 251.339C460.758 251.339 464.464 247.631 464.464 243.057C464.464 238.483 460.758 234.774 456.185 234.774C451.613 234.774 447.906 238.483 447.906 243.057C447.906 247.631 451.613 251.339 456.185 251.339Z" fill="white" stroke="#333333" stroke-width="1.02385"/>
<path d="M456.185 284.468C460.758 284.468 464.464 280.76 464.464 276.186C464.464 271.612 460.758 267.904 456.185 267.904C451.613 267.904 447.906 271.612 447.906 276.186C447.906 280.76 451.613 284.468 456.185 284.468Z" fill="white" stroke="#333333" stroke-width="1.02385"/>
<path d="M456.185 317.597C460.758 317.597 464.464 313.889 464.464 309.315C464.464 304.741 460.758 301.033 456.185 301.033C451.613 301.033 447.906 304.741 447.906 309.315C447.906 313.889 451.613 317.597 456.185 317.597Z" fill="white" stroke="#333333" stroke-width="1.02385"/>
<path d="M456.185 350.726C460.758 350.726 464.464 347.018 464.464 342.444C464.464 337.87 460.758 334.162 456.185 334.162C451.613 334.162 447.906 337.87 447.906 342.444C447.906 347.018 451.613 350.726 456.185 350.726Z" fill="white" stroke="#333333" stroke-width="1.02385"/>
<path d="M456.185 383.855C460.758 383.855 464.464 380.147 464.464 375.573C464.464 370.999 460.758 367.291 456.185 367.291C451.613 367.291 447.906 370.999 447.906 375.573C447.906 380.147 451.613 383.855 456.185 383.855Z" fill="white" stroke="#333333" stroke-width="1.02385"/>
<path d="M456.185 416.984C460.758 416.984 464.464 413.276 464.464 408.702C464.464 404.128 460.758 400.42 456.185 400.42C451.613 400.42 447.906 404.128 447.906 408.702C447.906 413.276 451.613 416.984 456.185 416.984Z" fill="white" stroke="#333333" stroke-width="1.02385"/>
</g>
<defs>
<clipPath id="clip0">
<rect width="480" height="441" fill="white"/>
</clipPath>
</defs>
</svg>
