<svg width="320" height="600" viewBox="0 0 320 600" fill="none" xmlns="http://www.w3.org/2000/svg">
<rect x="85.5" y="515.5" width="149" height="49" rx="3.5" stroke="#333333"/>
<path d="M160.086 540.547L162.219 536.625H164.914L161.602 542.266L165 548H162.273L160.086 544.016L157.898 548H155.172L158.57 542.266L155.258 536.625H157.953L160.086 540.547Z" fill="black"/>
<path d="M158.5 256.117H164.234V258H155.57V256.625L161.195 248.523H155.578V246.625H164.109V247.969L158.5 256.117Z" fill="black"/>
<rect x="135.5" y="323.5" width="49" height="49" rx="3.5" stroke="#333333"/>
<rect x="136" y="228" width="48" height="48" rx="3" stroke="#FF4040" stroke-width="2"/>
<rect x="85.5" y="419.5" width="149" height="49" rx="3.5" stroke="#333333"/>
<path d="M119.298 439.018V442.498C119.55 442.178 119.852 441.936 120.204 441.772C120.56 441.608 120.922 441.526 121.29 441.526C121.898 441.526 122.346 441.692 122.634 442.024C122.922 442.352 123.066 442.81 123.066 443.398V448H121.914V443.5C121.914 443.12 121.832 442.846 121.668 442.678C121.508 442.506 121.252 442.42 120.9 442.42C120.564 442.42 120.254 442.526 119.97 442.738C119.69 442.95 119.466 443.18 119.298 443.428V448H118.146V439.144L119.298 439.018ZM127.795 438.652C128.035 438.652 128.227 438.726 128.371 438.874C128.519 439.022 128.593 439.202 128.593 439.414C128.593 439.634 128.519 439.82 128.371 439.972C128.227 440.12 128.035 440.194 127.795 440.194C127.559 440.194 127.367 440.12 127.219 439.972C127.075 439.82 127.003 439.634 127.003 439.414C127.003 439.202 127.075 439.022 127.219 438.874C127.367 438.726 127.559 438.652 127.795 438.652ZM128.653 441.676V447.124H130.411V448H125.575V447.124H127.501V442.552H125.635V441.676H128.653ZM136.293 438.994L137.445 439.132V448H136.431L136.335 447.19C135.887 447.83 135.291 448.15 134.547 448.15C134.003 448.15 133.553 448.012 133.197 447.736C132.845 447.456 132.583 447.068 132.411 446.572C132.239 446.076 132.153 445.5 132.153 444.844C132.153 444.204 132.251 443.636 132.447 443.14C132.647 442.64 132.931 442.246 133.299 441.958C133.671 441.67 134.119 441.526 134.643 441.526C135.323 441.526 135.873 441.766 136.293 442.246V438.994ZM134.943 442.432C134.447 442.432 134.063 442.63 133.791 443.026C133.523 443.422 133.389 444.028 133.389 444.844C133.389 445.656 133.511 446.258 133.755 446.65C134.003 447.042 134.359 447.238 134.823 447.238C135.155 447.238 135.441 447.144 135.681 446.956C135.925 446.764 136.129 446.54 136.293 446.284V443.194C136.129 442.954 135.931 442.768 135.699 442.636C135.471 442.5 135.219 442.432 134.943 442.432ZM143.488 438.994L144.64 439.132V448H143.626L143.53 447.19C143.082 447.83 142.486 448.15 141.742 448.15C141.198 448.15 140.748 448.012 140.392 447.736C140.04 447.456 139.778 447.068 139.606 446.572C139.434 446.076 139.348 445.5 139.348 444.844C139.348 444.204 139.446 443.636 139.642 443.14C139.842 442.64 140.126 442.246 140.494 441.958C140.866 441.67 141.314 441.526 141.838 441.526C142.518 441.526 143.068 441.766 143.488 442.246V438.994ZM142.138 442.432C141.642 442.432 141.258 442.63 140.986 443.026C140.718 443.422 140.584 444.028 140.584 444.844C140.584 445.656 140.706 446.258 140.95 446.65C141.198 447.042 141.554 447.238 142.018 447.238C142.35 447.238 142.636 447.144 142.876 446.956C143.12 446.764 143.324 446.54 143.488 446.284V443.194C143.324 442.954 143.126 442.768 142.894 442.636C142.666 442.5 142.414 442.432 142.138 442.432ZM147.857 445.228C147.889 445.924 148.077 446.43 148.421 446.746C148.769 447.062 149.181 447.22 149.657 447.22C149.973 447.22 150.263 447.172 150.527 447.076C150.791 446.98 151.059 446.84 151.331 446.656L151.853 447.382C151.557 447.618 151.215 447.806 150.827 447.946C150.439 448.082 150.037 448.15 149.621 448.15C148.989 448.15 148.451 448.012 148.007 447.736C147.567 447.456 147.231 447.068 146.999 446.572C146.771 446.076 146.657 445.5 146.657 444.844C146.657 444.208 146.771 443.64 146.999 443.14C147.231 442.64 147.557 442.246 147.977 441.958C148.397 441.67 148.897 441.526 149.477 441.526C150.293 441.526 150.935 441.806 151.403 442.366C151.875 442.922 152.111 443.684 152.111 444.652C152.111 444.76 152.109 444.864 152.105 444.964C152.101 445.064 152.095 445.152 152.087 445.228H147.857ZM149.489 442.426C149.037 442.426 148.663 442.586 148.367 442.906C148.071 443.226 147.901 443.72 147.857 444.388H151.001C150.989 443.748 150.849 443.262 150.581 442.93C150.317 442.594 149.953 442.426 149.489 442.426ZM154.123 448V441.676H155.113L155.197 442.528C155.457 442.204 155.773 441.956 156.145 441.784C156.521 441.612 156.895 441.526 157.267 441.526C157.875 441.526 158.323 441.692 158.611 442.024C158.899 442.352 159.043 442.81 159.043 443.398V448H157.891V444.106C157.891 443.706 157.867 443.382 157.819 443.134C157.775 442.886 157.681 442.706 157.537 442.594C157.393 442.478 157.175 442.42 156.883 442.42C156.539 442.42 156.227 442.526 155.947 442.738C155.667 442.95 155.443 443.178 155.275 443.422V448H154.123ZM171.111 439.132V446.368C171.111 446.672 171.205 446.888 171.393 447.016C171.581 447.14 171.823 447.202 172.119 447.202C172.307 447.202 172.485 447.184 172.653 447.148C172.825 447.108 172.993 447.054 173.157 446.986L173.457 447.808C173.281 447.9 173.061 447.98 172.797 448.048C172.533 448.116 172.235 448.15 171.903 448.15C171.307 448.15 170.833 447.984 170.481 447.652C170.133 447.32 169.959 446.864 169.959 446.284V440.008H168.033V439.132H171.111ZM180.371 446.548C180.371 446.8 180.411 446.984 180.491 447.1C180.571 447.212 180.697 447.296 180.868 447.352L180.599 448.144C180.311 448.108 180.059 448.022 179.843 447.886C179.631 447.75 179.475 447.542 179.375 447.262C179.147 447.558 178.859 447.78 178.511 447.928C178.163 448.076 177.785 448.15 177.377 448.15C176.741 448.15 176.239 447.97 175.871 447.61C175.503 447.25 175.319 446.776 175.319 446.188C175.319 445.532 175.575 445.028 176.087 444.676C176.603 444.32 177.343 444.142 178.307 444.142H179.225V443.662C179.225 443.226 179.095 442.916 178.835 442.732C178.579 442.548 178.221 442.456 177.761 442.456C177.549 442.456 177.299 442.482 177.011 442.534C176.727 442.586 176.423 442.668 176.099 442.78L175.805 441.94C176.193 441.792 176.567 441.686 176.927 441.622C177.287 441.558 177.623 441.526 177.935 441.526C178.747 441.526 179.355 441.712 179.759 442.084C180.167 442.456 180.371 442.962 180.371 443.602V446.548ZM177.701 447.286C177.993 447.286 178.275 447.21 178.547 447.058C178.823 446.906 179.049 446.694 179.225 446.422V444.892H178.385C177.717 444.892 177.243 445.006 176.963 445.234C176.683 445.458 176.543 445.766 176.543 446.158C176.543 446.91 176.929 447.286 177.701 447.286ZM188.286 441.676L186.078 448.036C185.926 448.484 185.73 448.888 185.49 449.248C185.25 449.612 184.94 449.908 184.56 450.136C184.184 450.364 183.71 450.506 183.138 450.562L182.976 449.668C183.408 449.6 183.75 449.496 184.002 449.356C184.258 449.216 184.458 449.034 184.602 448.81C184.75 448.586 184.882 448.316 184.998 448H184.608L182.43 441.676H183.66L185.382 447.16L187.098 441.676H188.286ZM191.029 445.228C191.061 445.924 191.249 446.43 191.593 446.746C191.941 447.062 192.353 447.22 192.829 447.22C193.145 447.22 193.435 447.172 193.699 447.076C193.963 446.98 194.231 446.84 194.503 446.656L195.025 447.382C194.729 447.618 194.387 447.806 193.999 447.946C193.611 448.082 193.209 448.15 192.793 448.15C192.161 448.15 191.623 448.012 191.179 447.736C190.739 447.456 190.403 447.068 190.171 446.572C189.943 446.076 189.829 445.5 189.829 444.844C189.829 444.208 189.943 443.64 190.171 443.14C190.403 442.64 190.729 442.246 191.149 441.958C191.569 441.67 192.069 441.526 192.649 441.526C193.465 441.526 194.107 441.806 194.575 442.366C195.047 442.922 195.283 443.684 195.283 444.652C195.283 444.76 195.281 444.864 195.277 444.964C195.273 445.064 195.267 445.152 195.259 445.228H191.029ZM192.661 442.426C192.209 442.426 191.835 442.586 191.539 442.906C191.243 443.226 191.073 443.72 191.029 444.388H194.173C194.161 443.748 194.021 443.262 193.753 442.93C193.489 442.594 193.125 442.426 192.661 442.426ZM197.354 448V447.148H198.314V442.528H197.354V441.676H199.196L199.406 443.158C199.646 442.634 199.94 442.232 200.288 441.952C200.64 441.668 201.096 441.526 201.656 441.526C201.84 441.526 202.002 441.54 202.142 441.568C202.286 441.596 202.432 441.632 202.58 441.676L202.4 443.896H201.512V442.576H201.506C200.558 442.576 199.878 443.254 199.466 444.61V447.148H200.75V448H197.354Z" fill="black"/>
<rect x="85.5" y="131.5" width="149" height="49" rx="3.5" stroke="#333333"/>
<path d="M119.298 151.018V154.498C119.55 154.178 119.852 153.936 120.204 153.772C120.56 153.608 120.922 153.526 121.29 153.526C121.898 153.526 122.346 153.692 122.634 154.024C122.922 154.352 123.066 154.81 123.066 155.398V160H121.914V155.5C121.914 155.12 121.832 154.846 121.668 154.678C121.508 154.506 121.252 154.42 120.9 154.42C120.564 154.42 120.254 154.526 119.97 154.738C119.69 154.95 119.466 155.18 119.298 155.428V160H118.146V151.144L119.298 151.018ZM127.795 150.652C128.035 150.652 128.227 150.726 128.371 150.874C128.519 151.022 128.593 151.202 128.593 151.414C128.593 151.634 128.519 151.82 128.371 151.972C128.227 152.12 128.035 152.194 127.795 152.194C127.559 152.194 127.367 152.12 127.219 151.972C127.075 151.82 127.003 151.634 127.003 151.414C127.003 151.202 127.075 151.022 127.219 150.874C127.367 150.726 127.559 150.652 127.795 150.652ZM128.653 153.676V159.124H130.411V160H125.575V159.124H127.501V154.552H125.635V153.676H128.653ZM136.293 150.994L137.445 151.132V160H136.431L136.335 159.19C135.887 159.83 135.291 160.15 134.547 160.15C134.003 160.15 133.553 160.012 133.197 159.736C132.845 159.456 132.583 159.068 132.411 158.572C132.239 158.076 132.153 157.5 132.153 156.844C132.153 156.204 132.251 155.636 132.447 155.14C132.647 154.64 132.931 154.246 133.299 153.958C133.671 153.67 134.119 153.526 134.643 153.526C135.323 153.526 135.873 153.766 136.293 154.246V150.994ZM134.943 154.432C134.447 154.432 134.063 154.63 133.791 155.026C133.523 155.422 133.389 156.028 133.389 156.844C133.389 157.656 133.511 158.258 133.755 158.65C134.003 159.042 134.359 159.238 134.823 159.238C135.155 159.238 135.441 159.144 135.681 158.956C135.925 158.764 136.129 158.54 136.293 158.284V155.194C136.129 154.954 135.931 154.768 135.699 154.636C135.471 154.5 135.219 154.432 134.943 154.432ZM143.488 150.994L144.64 151.132V160H143.626L143.53 159.19C143.082 159.83 142.486 160.15 141.742 160.15C141.198 160.15 140.748 160.012 140.392 159.736C140.04 159.456 139.778 159.068 139.606 158.572C139.434 158.076 139.348 157.5 139.348 156.844C139.348 156.204 139.446 155.636 139.642 155.14C139.842 154.64 140.126 154.246 140.494 153.958C140.866 153.67 141.314 153.526 141.838 153.526C142.518 153.526 143.068 153.766 143.488 154.246V150.994ZM142.138 154.432C141.642 154.432 141.258 154.63 140.986 155.026C140.718 155.422 140.584 156.028 140.584 156.844C140.584 157.656 140.706 158.258 140.95 158.65C141.198 159.042 141.554 159.238 142.018 159.238C142.35 159.238 142.636 159.144 142.876 158.956C143.12 158.764 143.324 158.54 143.488 158.284V155.194C143.324 154.954 143.126 154.768 142.894 154.636C142.666 154.5 142.414 154.432 142.138 154.432ZM147.857 157.228C147.889 157.924 148.077 158.43 148.421 158.746C148.769 159.062 149.181 159.22 149.657 159.22C149.973 159.22 150.263 159.172 150.527 159.076C150.791 158.98 151.059 158.84 151.331 158.656L151.853 159.382C151.557 159.618 151.215 159.806 150.827 159.946C150.439 160.082 150.037 160.15 149.621 160.15C148.989 160.15 148.451 160.012 148.007 159.736C147.567 159.456 147.231 159.068 146.999 158.572C146.771 158.076 146.657 157.5 146.657 156.844C146.657 156.208 146.771 155.64 146.999 155.14C147.231 154.64 147.557 154.246 147.977 153.958C148.397 153.67 148.897 153.526 149.477 153.526C150.293 153.526 150.935 153.806 151.403 154.366C151.875 154.922 152.111 155.684 152.111 156.652C152.111 156.76 152.109 156.864 152.105 156.964C152.101 157.064 152.095 157.152 152.087 157.228H147.857ZM149.489 154.426C149.037 154.426 148.663 154.586 148.367 154.906C148.071 155.226 147.901 155.72 147.857 156.388H151.001C150.989 155.748 150.849 155.262 150.581 154.93C150.317 154.594 149.953 154.426 149.489 154.426ZM154.123 160V153.676H155.113L155.197 154.528C155.457 154.204 155.773 153.956 156.145 153.784C156.521 153.612 156.895 153.526 157.267 153.526C157.875 153.526 158.323 153.692 158.611 154.024C158.899 154.352 159.043 154.81 159.043 155.398V160H157.891V156.106C157.891 155.706 157.867 155.382 157.819 155.134C157.775 154.886 157.681 154.706 157.537 154.594C157.393 154.478 157.175 154.42 156.883 154.42C156.539 154.42 156.227 154.526 155.947 154.738C155.667 154.95 155.443 155.178 155.275 155.422V160H154.123ZM171.111 151.132V158.368C171.111 158.672 171.205 158.888 171.393 159.016C171.581 159.14 171.823 159.202 172.119 159.202C172.307 159.202 172.485 159.184 172.653 159.148C172.825 159.108 172.993 159.054 173.157 158.986L173.457 159.808C173.281 159.9 173.061 159.98 172.797 160.048C172.533 160.116 172.235 160.15 171.903 160.15C171.307 160.15 170.833 159.984 170.481 159.652C170.133 159.32 169.959 158.864 169.959 158.284V152.008H168.033V151.132H171.111ZM180.371 158.548C180.371 158.8 180.411 158.984 180.491 159.1C180.571 159.212 180.697 159.296 180.868 159.352L180.599 160.144C180.311 160.108 180.059 160.022 179.843 159.886C179.631 159.75 179.475 159.542 179.375 159.262C179.147 159.558 178.859 159.78 178.511 159.928C178.163 160.076 177.785 160.15 177.377 160.15C176.741 160.15 176.239 159.97 175.871 159.61C175.503 159.25 175.319 158.776 175.319 158.188C175.319 157.532 175.575 157.028 176.087 156.676C176.603 156.32 177.343 156.142 178.307 156.142H179.225V155.662C179.225 155.226 179.095 154.916 178.835 154.732C178.579 154.548 178.221 154.456 177.761 154.456C177.549 154.456 177.299 154.482 177.011 154.534C176.727 154.586 176.423 154.668 176.099 154.78L175.805 153.94C176.193 153.792 176.567 153.686 176.927 153.622C177.287 153.558 177.623 153.526 177.935 153.526C178.747 153.526 179.355 153.712 179.759 154.084C180.167 154.456 180.371 154.962 180.371 155.602V158.548ZM177.701 159.286C177.993 159.286 178.275 159.21 178.547 159.058C178.823 158.906 179.049 158.694 179.225 158.422V156.892H178.385C177.717 156.892 177.243 157.006 176.963 157.234C176.683 157.458 176.543 157.766 176.543 158.158C176.543 158.91 176.929 159.286 177.701 159.286ZM188.286 153.676L186.078 160.036C185.926 160.484 185.73 160.888 185.49 161.248C185.25 161.612 184.94 161.908 184.56 162.136C184.184 162.364 183.71 162.506 183.138 162.562L182.976 161.668C183.408 161.6 183.75 161.496 184.002 161.356C184.258 161.216 184.458 161.034 184.602 160.81C184.75 160.586 184.882 160.316 184.998 160H184.608L182.43 153.676H183.66L185.382 159.16L187.098 153.676H188.286ZM191.029 157.228C191.061 157.924 191.249 158.43 191.593 158.746C191.941 159.062 192.353 159.22 192.829 159.22C193.145 159.22 193.435 159.172 193.699 159.076C193.963 158.98 194.231 158.84 194.503 158.656L195.025 159.382C194.729 159.618 194.387 159.806 193.999 159.946C193.611 160.082 193.209 160.15 192.793 160.15C192.161 160.15 191.623 160.012 191.179 159.736C190.739 159.456 190.403 159.068 190.171 158.572C189.943 158.076 189.829 157.5 189.829 156.844C189.829 156.208 189.943 155.64 190.171 155.14C190.403 154.64 190.729 154.246 191.149 153.958C191.569 153.67 192.069 153.526 192.649 153.526C193.465 153.526 194.107 153.806 194.575 154.366C195.047 154.922 195.283 155.684 195.283 156.652C195.283 156.76 195.281 156.864 195.277 156.964C195.273 157.064 195.267 157.152 195.259 157.228H191.029ZM192.661 154.426C192.209 154.426 191.835 154.586 191.539 154.906C191.243 155.226 191.073 155.72 191.029 156.388H194.173C194.161 155.748 194.021 155.262 193.753 154.93C193.489 154.594 193.125 154.426 192.661 154.426ZM197.354 160V159.148H198.314V154.528H197.354V153.676H199.196L199.406 155.158C199.646 154.634 199.94 154.232 200.288 153.952C200.64 153.668 201.096 153.526 201.656 153.526C201.84 153.526 202.002 153.54 202.142 153.568C202.286 153.596 202.432 153.632 202.58 153.676L202.4 155.896H201.512V154.576H201.506C200.558 154.576 199.878 155.254 199.466 156.61V159.148H200.75V160H197.354Z" fill="black"/>
<rect x="85.5" y="35.5" width="149" height="49" rx="3.5" stroke="#333333"/>
<path d="M160.086 60.5469L162.219 56.625H164.914L161.602 62.2656L165 68H162.273L160.086 64.0156L157.898 68H155.172L158.57 62.2656L155.258 56.625H157.953L160.086 60.5469Z" fill="black"/>
<path d="M155 54C157 52.5001 158.5 52.4998 160 53.4999C161.5 54.5 163 55 165 53.4999" stroke="black"/>
<path d="M159.266 353.199C157.266 353.02 155.723 352.332 154.637 351.137C153.559 349.934 153.02 348.352 153.02 346.391C153.02 345.078 153.27 343.91 153.77 342.887C154.277 341.855 155.027 341 156.02 340.32L157.203 341.879C155.945 342.973 155.277 344.477 155.199 346.391C155.199 347.742 155.551 348.867 156.254 349.766C156.965 350.656 157.969 351.203 159.266 351.406V343.016C159.266 342.195 159.535 341.543 160.074 341.059C160.613 340.566 161.324 340.32 162.207 340.32C163.223 340.32 164.168 340.598 165.043 341.152C165.926 341.699 166.621 342.457 167.129 343.426C167.637 344.395 167.891 345.461 167.891 346.625C167.891 348.523 167.324 350.055 166.191 351.219C165.059 352.375 163.473 353.035 161.434 353.199V358.602H159.266V353.199ZM161.434 351.406C162.762 351.234 163.809 350.715 164.574 349.848C165.34 348.98 165.723 347.906 165.723 346.625C165.684 345.305 165.34 344.223 164.691 343.379C164.051 342.535 163.223 342.113 162.207 342.113C161.691 342.113 161.434 342.434 161.434 343.074V351.406Z" fill="black"/>
<path d="M242.027 265.083C241.194 265.008 240.551 264.722 240.099 264.224C239.649 263.722 239.425 263.063 239.425 262.246C239.425 261.699 239.529 261.213 239.737 260.786C239.949 260.356 240.261 260 240.675 259.717L241.168 260.366C240.644 260.822 240.366 261.449 240.333 262.246C240.333 262.809 240.479 263.278 240.772 263.652C241.069 264.023 241.487 264.251 242.027 264.336V260.84C242.027 260.498 242.14 260.226 242.364 260.024C242.589 259.819 242.885 259.717 243.253 259.717C243.676 259.717 244.07 259.832 244.435 260.063C244.802 260.291 245.092 260.607 245.304 261.011C245.515 261.414 245.621 261.859 245.621 262.344C245.621 263.135 245.385 263.773 244.913 264.258C244.441 264.74 243.78 265.015 242.931 265.083V267.334H242.027V265.083ZM242.931 264.336C243.484 264.264 243.92 264.048 244.239 263.687C244.558 263.325 244.718 262.878 244.718 262.344C244.701 261.794 244.558 261.343 244.288 260.991C244.021 260.64 243.676 260.464 243.253 260.464C243.038 260.464 242.931 260.597 242.931 260.864V264.336Z" fill="black"/>
<path d="M160.354 470.646C160.158 470.451 159.842 470.451 159.646 470.646L156.464 473.828C156.269 474.024 156.269 474.34 156.464 474.536C156.66 474.731 156.976 474.731 157.172 474.536L160 471.707L162.828 474.536C163.024 474.731 163.34 474.731 163.536 474.536C163.731 474.34 163.731 474.024 163.536 473.828L160.354 470.646ZM160.5 513V471H159.5V513H160.5Z" fill="black"/>
<path d="M160.354 182.646C160.158 182.451 159.842 182.451 159.646 182.646L156.464 185.828C156.269 186.024 156.269 186.34 156.464 186.536C156.66 186.731 156.976 186.731 157.172 186.536L160 183.707L162.828 186.536C163.024 186.731 163.34 186.731 163.536 186.536C163.731 186.34 163.731 186.024 163.536 185.828L160.354 182.646ZM160.5 226V183H159.5V226H160.5Z" fill="black"/>
<path d="M160.354 374.646C160.158 374.451 159.842 374.451 159.646 374.646L156.464 377.828C156.269 378.024 156.269 378.34 156.464 378.536C156.66 378.731 156.976 378.731 157.172 378.536L160 375.707L162.828 378.536C163.024 378.731 163.34 378.731 163.536 378.536C163.731 378.34 163.731 378.024 163.536 377.828L160.354 374.646ZM160.5 418V375H159.5V418H160.5Z" fill="black"/>
<path d="M160.354 278.646C160.158 278.451 159.842 278.451 159.646 278.646L156.464 281.828C156.269 282.024 156.269 282.34 156.464 282.536C156.66 282.731 156.976 282.731 157.172 282.536L160 279.707L162.828 282.536C163.024 282.731 163.34 282.731 163.536 282.536C163.731 282.34 163.731 282.024 163.536 281.828L160.354 278.646ZM160.5 322V279H159.5V322H160.5Z" fill="black"/>
<path d="M160.354 86.6464C160.158 86.4512 159.842 86.4512 159.646 86.6464L156.464 89.8284C156.269 90.0237 156.269 90.3403 156.464 90.5355C156.66 90.7308 156.976 90.7308 157.172 90.5355L160 87.7071L162.828 90.5355C163.024 90.7308 163.34 90.7308 163.536 90.5355C163.731 90.3403 163.731 90.0237 163.536 89.8284L160.354 86.6464ZM160.5 130V87H159.5V130H160.5Z" fill="black"/>
<path d="M67 323H52C49.7909 323 48 324.791 48 327V561C48 563.209 49.7909 565 52 565H67" stroke="#6DA4E4" stroke-width="2" stroke-linecap="round"/>
<path d="M67 35H52C49.7909 35 48 36.7909 48 39V273C48 275.209 49.7909 277 52 277H67" stroke="#65E479" stroke-width="2" stroke-linecap="round"/>
<path d="M17.988 196.196L18.264 193.892L36 193.892L36 195.92L34.38 196.112C35.66 197.008 36.3 198.2 36.3 199.688C36.3 200.776 36.024 201.676 35.472 202.388C34.912 203.092 34.136 203.616 33.144 203.96C32.152 204.304 31 204.476 29.688 204.476C28.408 204.476 27.272 204.28 26.28 203.888C25.28 203.488 24.492 202.92 23.916 202.184C23.34 201.44 23.052 200.544 23.052 199.496C23.052 198.136 23.532 197.036 24.492 196.196L17.988 196.196ZM24.864 198.896C24.864 199.888 25.26 200.656 26.052 201.2C26.844 201.736 28.056 202.004 29.688 202.004C31.312 202.004 32.516 201.76 33.3 201.272C34.084 200.776 34.476 200.064 34.476 199.136C34.476 198.472 34.288 197.9 33.912 197.42C33.528 196.932 33.08 196.524 32.568 196.196L26.388 196.196C25.908 196.524 25.536 196.92 25.272 197.384C25 197.84 24.864 198.344 24.864 198.896ZM30.456 187.457C31.848 187.393 32.86 187.017 33.492 186.329C34.124 185.633 34.44 184.809 34.44 183.857C34.44 183.225 34.344 182.645 34.152 182.117C33.96 181.589 33.68 181.053 33.312 180.509L34.764 179.465C35.236 180.057 35.612 180.741 35.892 181.517C36.164 182.293 36.3 183.097 36.3 183.929C36.3 185.193 36.024 186.269 35.472 187.157C34.912 188.037 34.136 188.709 33.144 189.173C32.152 189.629 31 189.857 29.688 189.857C28.416 189.857 27.28 189.629 26.28 189.173C25.28 188.709 24.492 188.057 23.916 187.217C23.34 186.377 23.052 185.377 23.052 184.217C23.052 182.585 23.612 181.301 24.732 180.365C25.844 179.421 27.368 178.949 29.304 178.949C29.52 178.949 29.728 178.953 29.928 178.961C30.128 178.969 30.304 178.981 30.456 178.997L30.456 187.457ZM24.852 184.193C24.852 185.097 25.172 185.845 25.812 186.437C26.452 187.029 27.44 187.369 28.776 187.457L28.776 181.169C27.496 181.193 26.524 181.473 25.86 182.009C25.188 182.537 24.852 183.265 24.852 184.193ZM34.356 169.047C34.356 168.431 34.256 167.859 34.056 167.331C33.848 166.795 33.58 166.295 33.252 165.831L34.752 164.727C35.216 165.287 35.592 165.959 35.88 166.743C36.16 167.519 36.3 168.299 36.3 169.083C36.3 170.355 36.028 171.443 35.484 172.347C34.94 173.243 34.176 173.927 33.192 174.399C32.208 174.871 31.056 175.107 29.736 175.107C28.456 175.107 27.316 174.871 26.316 174.399C25.308 173.919 24.512 173.227 23.928 172.323C23.344 171.419 23.052 170.327 23.052 169.047C23.052 167.399 23.548 165.967 24.54 164.751L26.04 165.843C25.304 166.907 24.936 167.971 24.936 169.035C24.936 170.091 25.328 170.955 26.112 171.627C26.896 172.299 28.104 172.635 29.736 172.635C31.376 172.635 32.556 172.299 33.276 171.627C33.996 170.947 34.356 170.087 34.356 169.047ZM23.052 155.604C23.052 153.796 23.652 152.424 24.852 151.488C26.052 150.544 27.656 150.072 29.664 150.072C30.968 150.072 32.12 150.288 33.12 150.72C34.12 151.144 34.9 151.768 35.46 152.592C36.02 153.416 36.3 154.428 36.3 155.628C36.3 157.436 35.7 158.816 34.5 159.768C33.3 160.712 31.696 161.184 29.688 161.184C28.376 161.184 27.224 160.972 26.232 160.548C25.232 160.116 24.452 159.488 23.892 158.664C23.332 157.832 23.052 156.812 23.052 155.604ZM24.888 155.604C24.888 156.644 25.28 157.428 26.064 157.956C26.84 158.484 28.048 158.748 29.688 158.748C31.312 158.748 32.516 158.488 33.3 157.968C34.076 157.448 34.464 156.668 34.464 155.628C34.464 154.588 34.076 153.808 33.3 153.288C32.516 152.768 31.304 152.508 29.664 152.508C28.032 152.508 26.828 152.768 26.052 153.288C25.276 153.808 24.888 154.58 24.888 155.604ZM17.988 138.633L18.264 136.329L36 136.329L36 138.357L34.38 138.549C35.66 139.445 36.3 140.638 36.3 142.126C36.3 143.214 36.024 144.114 35.472 144.825C34.912 145.53 34.136 146.054 33.144 146.398C32.152 146.742 31 146.914 29.688 146.914C28.408 146.914 27.272 146.718 26.28 146.326C25.28 145.926 24.492 145.357 23.916 144.621C23.34 143.877 23.052 142.981 23.052 141.933C23.052 140.573 23.532 139.473 24.492 138.633L17.988 138.633ZM24.864 141.334C24.864 142.325 25.26 143.093 26.052 143.638C26.844 144.174 28.056 144.442 29.688 144.442C31.312 144.442 32.516 144.198 33.3 143.709C34.084 143.213 34.476 142.501 34.476 141.573C34.476 140.909 34.288 140.337 33.912 139.857C33.528 139.369 33.08 138.961 32.568 138.633L26.388 138.633C25.908 138.961 25.536 139.357 25.272 139.821C25 140.277 24.864 140.782 24.864 141.334ZM30.456 129.895C31.848 129.831 32.86 129.455 33.492 128.767C34.124 128.071 34.44 127.247 34.44 126.295C34.44 125.663 34.344 125.083 34.152 124.555C33.96 124.027 33.68 123.491 33.312 122.947L34.764 121.903C35.236 122.495 35.612 123.179 35.892 123.955C36.164 124.731 36.3 125.535 36.3 126.367C36.3 127.631 36.024 128.707 35.472 129.595C34.912 130.475 34.136 131.147 33.144 131.611C32.152 132.067 31 132.295 29.688 132.295C28.416 132.295 27.28 132.067 26.28 131.611C25.28 131.147 24.492 130.495 23.916 129.655C23.34 128.815 23.052 127.815 23.052 126.655C23.052 125.023 23.612 123.739 24.732 122.803C25.844 121.859 27.368 121.387 29.304 121.387C29.52 121.387 29.728 121.391 29.928 121.399C30.128 121.407 30.304 121.419 30.456 121.435L30.456 129.895ZM24.852 126.631C24.852 127.535 25.172 128.283 25.812 128.875C26.452 129.467 27.44 129.807 28.776 129.895L28.776 123.607C27.496 123.631 26.524 123.911 25.86 124.447C25.188 124.975 24.852 125.703 24.852 126.631ZM36 117.244L34.296 117.244L34.296 115.324L25.056 115.324L25.056 117.244L23.352 117.244L23.352 113.56L26.316 113.14C25.268 112.66 24.464 112.072 23.904 111.376C23.336 110.672 23.052 109.76 23.052 108.64C23.052 108.272 23.08 107.948 23.136 107.668C23.192 107.38 23.264 107.088 23.352 106.792L27.792 107.152L27.792 108.928L25.152 108.928L25.152 108.94C25.152 110.836 26.508 112.196 29.22 113.02L34.296 113.02L34.296 110.452L36 110.452L36 117.244Z" fill="black"/>
<path d="M30.456 489.848C31.848 489.784 32.86 489.408 33.492 488.72C34.124 488.024 34.44 487.2 34.44 486.248C34.44 485.616 34.344 485.036 34.152 484.508C33.96 483.98 33.68 483.444 33.312 482.9L34.764 481.856C35.236 482.448 35.612 483.132 35.892 483.908C36.164 484.684 36.3 485.488 36.3 486.32C36.3 487.584 36.024 488.66 35.472 489.548C34.912 490.428 34.136 491.1 33.144 491.564C32.152 492.02 31 492.248 29.688 492.248C28.416 492.248 27.28 492.02 26.28 491.564C25.28 491.1 24.492 490.448 23.916 489.608C23.34 488.768 23.052 487.768 23.052 486.608C23.052 484.976 23.612 483.692 24.732 482.756C25.844 481.812 27.368 481.34 29.304 481.34C29.52 481.34 29.728 481.344 29.928 481.352C30.128 481.36 30.304 481.372 30.456 481.388L30.456 489.848ZM24.852 486.584C24.852 487.488 25.172 488.236 25.812 488.828C26.452 489.42 27.44 489.76 28.776 489.848L28.776 483.56C27.496 483.584 26.524 483.864 25.86 484.4C25.188 484.928 24.852 485.656 24.852 486.584ZM36 477.317L23.352 477.317L23.352 475.337L25.056 475.169C24.408 474.649 23.912 474.017 23.568 473.273C23.224 472.521 23.052 471.773 23.052 471.029C23.052 469.813 23.384 468.917 24.048 468.341C24.704 467.765 25.62 467.477 26.796 467.477L36 467.477L36 469.781L28.212 469.781C27.412 469.781 26.764 469.829 26.268 469.925C25.772 470.013 25.412 470.201 25.188 470.489C24.956 470.777 24.84 471.213 24.84 471.797C24.84 472.485 25.052 473.109 25.476 473.669C25.9 474.229 26.356 474.677 26.844 475.013L36 475.013L36 477.317ZM34.356 457.047C34.356 456.431 34.256 455.859 34.056 455.331C33.848 454.795 33.58 454.295 33.252 453.831L34.752 452.727C35.216 453.287 35.592 453.959 35.88 454.743C36.16 455.519 36.3 456.299 36.3 457.083C36.3 458.355 36.028 459.443 35.484 460.347C34.94 461.243 34.176 461.927 33.192 462.399C32.208 462.871 31.056 463.107 29.736 463.107C28.456 463.107 27.316 462.871 26.316 462.399C25.308 461.919 24.512 461.227 23.928 460.323C23.344 459.419 23.052 458.327 23.052 457.047C23.052 455.399 23.548 453.967 24.54 452.751L26.04 453.843C25.304 454.907 24.936 455.971 24.936 457.035C24.936 458.091 25.328 458.955 26.112 459.627C26.896 460.299 28.104 460.635 29.736 460.635C31.376 460.635 32.556 460.299 33.276 459.627C33.996 458.947 34.356 458.087 34.356 457.047ZM23.052 443.604C23.052 441.796 23.652 440.424 24.852 439.488C26.052 438.544 27.656 438.072 29.664 438.072C30.968 438.072 32.12 438.288 33.12 438.72C34.12 439.144 34.9 439.768 35.46 440.592C36.02 441.416 36.3 442.428 36.3 443.628C36.3 445.436 35.7 446.816 34.5 447.768C33.3 448.712 31.696 449.184 29.688 449.184C28.376 449.184 27.224 448.972 26.232 448.548C25.232 448.116 24.452 447.488 23.892 446.664C23.332 445.832 23.052 444.812 23.052 443.604ZM24.888 443.604C24.888 444.644 25.28 445.428 26.064 445.956C26.84 446.484 28.048 446.748 29.688 446.748C31.312 446.748 32.516 446.488 33.3 445.968C34.076 445.448 34.464 444.668 34.464 443.628C34.464 442.588 34.076 441.808 33.3 441.288C32.516 440.768 31.304 440.508 29.664 440.508C28.032 440.508 26.828 440.768 26.052 441.288C25.276 441.808 24.888 442.58 24.888 443.604ZM17.988 426.633L18.264 424.329L36 424.329L36 426.357L34.38 426.549C35.66 427.445 36.3 428.638 36.3 430.126C36.3 431.214 36.024 432.114 35.472 432.825C34.912 433.53 34.136 434.054 33.144 434.398C32.152 434.742 31 434.914 29.688 434.914C28.408 434.914 27.272 434.718 26.28 434.326C25.28 433.926 24.492 433.357 23.916 432.621C23.34 431.877 23.052 430.981 23.052 429.933C23.052 428.573 23.532 427.473 24.492 426.633L17.988 426.633ZM24.864 429.334C24.864 430.325 25.26 431.093 26.052 431.638C26.844 432.174 28.056 432.442 29.688 432.442C31.312 432.442 32.516 432.198 33.3 431.709C34.084 431.213 34.476 430.501 34.476 429.573C34.476 428.909 34.288 428.337 33.912 427.857C33.528 427.369 33.08 426.961 32.568 426.633L26.388 426.633C25.908 426.961 25.536 427.357 25.272 427.821C25 428.277 24.864 428.782 24.864 429.334ZM30.456 417.895C31.848 417.831 32.86 417.455 33.492 416.767C34.124 416.071 34.44 415.247 34.44 414.295C34.44 413.663 34.344 413.083 34.152 412.555C33.96 412.027 33.68 411.491 33.312 410.947L34.764 409.903C35.236 410.495 35.612 411.179 35.892 411.955C36.164 412.731 36.3 413.535 36.3 414.367C36.3 415.631 36.024 416.707 35.472 417.595C34.912 418.475 34.136 419.147 33.144 419.611C32.152 420.067 31 420.295 29.688 420.295C28.416 420.295 27.28 420.067 26.28 419.611C25.28 419.147 24.492 418.495 23.916 417.655C23.34 416.815 23.052 415.815 23.052 414.655C23.052 413.023 23.612 411.739 24.732 410.803C25.844 409.859 27.368 409.387 29.304 409.387C29.52 409.387 29.728 409.391 29.928 409.399C30.128 409.407 30.304 409.419 30.456 409.435L30.456 417.895ZM24.852 414.631C24.852 415.535 25.172 416.283 25.812 416.875C26.452 417.467 27.44 417.807 28.776 417.895L28.776 411.607C27.496 411.631 26.524 411.911 25.86 412.447C25.188 412.975 24.852 413.703 24.852 414.631ZM36 405.244L34.296 405.244L34.296 403.324L25.056 403.324L25.056 405.244L23.352 405.244L23.352 401.56L26.316 401.14C25.268 400.66 24.464 400.072 23.904 399.376C23.336 398.672 23.052 397.76 23.052 396.64C23.052 396.272 23.08 395.948 23.136 395.668C23.192 395.38 23.264 395.088 23.352 394.792L27.792 395.152L27.792 396.928L25.152 396.928L25.152 396.94C25.152 398.836 26.508 400.196 29.22 401.02L34.296 401.02L34.296 398.452L36 398.452L36 405.244Z" fill="black"/>
<path d="M206.453 256.82H211.398V258H204.688V256.938L209.352 250.742H204.758V249.547H211.164V250.57L206.453 256.82ZM225.773 251.93C225.773 252.753 225.529 253.448 225.039 254.016C224.555 254.578 223.956 254.859 223.242 254.859C222.867 254.859 222.513 254.792 222.18 254.656C221.846 254.516 221.458 254.253 221.016 253.867C220.578 253.482 220.263 253.242 220.07 253.148C219.878 253.055 219.672 253.008 219.453 253.008C219.047 253.008 218.734 253.148 218.516 253.43C218.297 253.706 218.188 254.089 218.188 254.578L216.93 254.594C216.93 253.76 217.169 253.076 217.648 252.539C218.128 252.003 218.729 251.734 219.453 251.734C219.849 251.734 220.229 251.818 220.594 251.984C220.958 252.151 221.37 252.445 221.828 252.867C222.286 253.284 222.682 253.518 223.016 253.57L223.242 253.586C223.638 253.586 223.958 253.435 224.203 253.133C224.453 252.831 224.578 252.432 224.578 251.938L225.773 251.93ZM231.508 253.703C231.508 252.375 231.812 251.326 232.422 250.555C233.031 249.779 233.849 249.391 234.875 249.391C235.875 249.391 236.664 249.727 237.242 250.398L237.305 249.547H238.633V261.25H237.188V257.219C236.604 257.844 235.828 258.156 234.859 258.156C233.839 258.156 233.023 257.76 232.414 256.969C231.81 256.172 231.508 255.117 231.508 253.805V253.703ZM232.953 253.867C232.953 254.836 233.156 255.596 233.562 256.148C233.974 256.701 234.526 256.977 235.219 256.977C236.078 256.977 236.734 256.596 237.188 255.836V251.695C236.729 250.951 236.078 250.578 235.234 250.578C234.536 250.578 233.982 250.857 233.57 251.414C233.159 251.966 232.953 252.784 232.953 253.867ZM244.867 253.383C244.867 252.206 245.023 251.076 245.336 249.992C245.654 248.909 246.125 247.924 246.75 247.039C247.375 246.154 248.023 245.529 248.695 245.164L248.992 246.117C248.232 246.701 247.607 247.591 247.117 248.789C246.633 249.987 246.367 251.328 246.32 252.812L246.312 253.477C246.312 255.487 246.68 257.232 247.414 258.711C247.857 259.596 248.383 260.289 248.992 260.789L248.695 261.672C248.003 261.286 247.341 260.641 246.711 259.734C245.482 257.964 244.867 255.846 244.867 253.383ZM251.75 256.82H256.695V258H249.984V256.938L254.648 250.742H250.055V249.547H256.461V250.57L251.75 256.82ZM259.766 260.109H258.602V246.625H259.766V260.109ZM265.07 252.633L266.945 249.547H268.633L265.867 253.727L268.719 258H267.047L265.094 254.836L263.141 258H261.461L264.312 253.727L261.547 249.547H263.219L265.07 252.633ZM273.508 253.461C273.508 254.622 273.354 255.737 273.047 256.805C272.745 257.867 272.279 258.849 271.648 259.75C271.023 260.651 270.367 261.292 269.68 261.672L269.375 260.789C270.177 260.174 270.82 259.221 271.305 257.93C271.794 256.633 272.044 255.195 272.055 253.617V253.367C272.055 252.273 271.94 251.258 271.711 250.32C271.482 249.378 271.161 248.534 270.75 247.789C270.344 247.044 269.885 246.464 269.375 246.047L269.68 245.164C270.367 245.544 271.021 246.18 271.641 247.07C272.266 247.961 272.732 248.943 273.039 250.016C273.352 251.089 273.508 252.237 273.508 253.461Z" fill="black"/>
</svg>
