<svg width="100" height="100" viewBox="0 0 100 100" fill="none" xmlns="http://www.w3.org/2000/svg">
<circle cx="50" cy="18" r="15.5" stroke="#333333"/>
<circle cx="50" cy="82" r="15.5" stroke="#333333"/>
<path d="M49.6464 64.3536C49.8417 64.5488 50.1583 64.5488 50.3536 64.3536L53.5355 61.1716C53.7308 60.9763 53.7308 60.6597 53.5355 60.4645C53.3403 60.2692 53.0237 60.2692 52.8284 60.4645L50 63.2929L47.1716 60.4645C46.9763 60.2692 46.6597 60.2692 46.4645 60.4645C46.2692 60.6597 46.2692 60.9763 46.4645 61.1716L49.6464 64.3536ZM49.5 36L49.5 64L50.5 64L50.5 36L49.5 36Z" fill="#333333"/>
<path d="M48.5 22.1172H54.2344V24H45.5703V22.625L51.1953 14.5234H45.5781V12.625H54.1094V13.9688L48.5 22.1172Z" fill="black"/>
<path d="M50.0859 80.5469L52.2188 76.625H54.9141L51.6016 82.2656L55 88H52.2734L50.0859 84.0156L47.8984 88H45.1719L48.5703 82.2656L45.2578 76.625H47.9531L50.0859 80.5469Z" fill="black"/>
</svg>
