<svg width="680" height="480" viewBox="0 0 680 480" fill="none" xmlns="http://www.w3.org/2000/svg">
<rect x="354" y="80" width="296" height="296" rx="4" fill="#EBEBEB"/>
<circle cx="438.5" cy="145.5" r="5" stroke="#FF4040"/>
<circle cx="438.5" cy="145.5" r="12" stroke="#FF4040" stroke-opacity="0.75"/>
<circle cx="438" cy="146" r="24.5" stroke="#FF4040" stroke-opacity="0.4"/>
<circle cx="438" cy="147" r="47.5" stroke="#FF4040" stroke-opacity="0.2"/>
<rect x="27" y="80" width="111" height="115" rx="4" fill="#333333"/>
<rect x="27" y="261" width="111" height="115" rx="4" fill="#333333"/>
<path d="M65.0645 116.865C65.0645 112.687 63.8966 105.182 68.6073 102.984C70.8741 101.927 72.737 100.49 75.0892 99.5141C77.8699 98.3604 80.2091 97.818 83.2507 98.0544C86.7481 98.3263 89.2758 101.153 92.3569 102.489C95.7859 103.975 99.9349 103.952 103.038 106.207C105.122 107.722 106.105 109.88 106.738 112.404C107.372 114.934 108.874 120.96 107.315 123.53C103.595 129.665 95.5315 128.067 89.7326 129.149C84.9335 130.044 80.6155 131.434 75.929 132.839C69.5884 134.741 64.3118 138.421 60.7083 144.352C58.111 148.626 56.0747 152.08 55.6172 157.241C55.2876 160.96 53.8287 166.931 57.0343 169.8C65.3438 177.239 75.3571 179.763 86.2948 178.806C88.9802 178.572 92.8939 176.341 95.1911 174.978C97.8352 173.41 100.257 171.703 102.145 169.112C105.859 164.015 103.416 155.654 100.02 151.072C97.2389 147.32 93.2396 144.849 89.1553 142.644C86.8076 141.377 84.4311 140.165 82.0698 138.926C78.9221 137.274 76.9994 133.846 74.1445 131.738C70.1846 128.813 66.542 122.013 65.0645 117.361" stroke="white" stroke-width="3" stroke-linecap="round" stroke-linejoin="round"/>
<path d="M80.7566 313.508C76.3752 313.508 72.406 313.835 68.2731 312.279C64.3955 310.819 61.7312 308.083 59.6026 304.44C58.021 301.733 57.7028 296.958 58.2446 293.842C58.8189 290.538 62.2594 289.123 64.7736 287.833C71.6513 284.305 79.0044 281.059 86.7633 281.059C91.0653 281.059 95.5874 280.683 99.7952 281.824C103.419 282.807 108.323 284.211 111.312 286.577C114.927 289.438 116.489 299.797 113.193 303.675C111.749 305.375 109.832 305.688 108.022 306.871C105.937 308.234 103.167 309.808 100.866 310.668C96.5842 312.267 93.064 314 88.3825 314C85.6838 314 82.9852 314 80.2865 314" stroke="white" stroke-width="3" stroke-linecap="round" stroke-linejoin="round"/>
<path d="M78.6757 315C86.4976 315 94.5797 315.119 102.123 317.466C105.57 318.538 116 321.947 116 326.836C116 331.487 114.235 335.572 113.607 340.096C113.199 343.039 112.092 346.737 109.779 348.644C106.37 351.455 103.502 354.012 99.5177 356.042C93.0762 359.323 85.064 359.719 77.9579 360.37C71.4874 360.963 64.865 361.18 58.3653 360.836C53.2272 360.565 50.8847 355.256 49.752 350.754C48.8713 347.253 49.0076 343.736 49.0076 340.151C49.0076 336.594 52.3395 332.813 54.484 330.178C58.2384 325.565 64.1093 318.165 70.3282 317C71.858 316.713 80.329 316.524 81.0683 315" stroke="white" stroke-width="3" stroke-linecap="round" stroke-linejoin="round"/>
<path d="M420.346 145.286C420.547 145.096 420.555 144.779 420.364 144.579L417.264 141.317C417.074 141.117 416.758 141.109 416.558 141.299C416.357 141.49 416.349 141.806 416.54 142.006L419.295 144.906L416.396 147.661C416.195 147.851 416.187 148.168 416.378 148.368C416.568 148.568 416.884 148.576 417.084 148.386L420.346 145.286ZM147.987 138.5L419.989 145.424L420.015 144.424L148.013 137.5L147.987 138.5Z" fill="black"/>
<path d="M444.478 162.148C444.559 161.884 444.412 161.604 444.148 161.522L439.849 160.191C439.586 160.109 439.306 160.257 439.224 160.521C439.142 160.784 439.29 161.065 439.554 161.146L443.374 162.33L442.191 166.151C442.109 166.414 442.257 166.694 442.521 166.776C442.784 166.858 443.065 166.71 443.146 166.446L444.478 162.148ZM148.233 318.442L444.233 162.442L443.767 161.558L147.767 317.558L148.233 318.442Z" fill="black"/>
</svg>
