<svg width="680" height="480" viewBox="0 0 680 480" fill="none" xmlns="http://www.w3.org/2000/svg">
<path d="M550.579 254.753C600.565 287.506 499.483 104.203 475.6 131.785C457.565 152.614 444.831 132.129 419.505 89.8373C387.847 36.9724 433.945 216.254 475.6 177.179C517.256 138.105 545.581 230.044 499.483 211.082C464.492 196.689 521.699 342.67 475.6 378.871C411.513 429.199 666.658 376.572 664.992 355.311C663.326 334.051 550.579 351.289 521.699 330.603C492.818 309.917 500.593 231.768 550.579 254.753Z" fill="#EBEBEB" stroke="#333333"/>
<circle cx="435.5" cy="137.5" r="2.5" fill="#FF4040"/>
<circle cx="502.5" cy="318.5" r="2.5" fill="#FF4040"/>
<rect x="27" y="80" width="111" height="115" rx="4" fill="#333333"/>
<rect x="27" y="261" width="111" height="115" rx="4" fill="#333333"/>
<path d="M65.0645 116.865C65.0645 112.687 63.8966 105.182 68.6073 102.984C70.8741 101.927 72.737 100.49 75.0892 99.5141C77.8699 98.3604 80.2091 97.818 83.2507 98.0544C86.7481 98.3263 89.2758 101.153 92.3569 102.489C95.7859 103.975 99.9349 103.952 103.038 106.207C105.122 107.722 106.105 109.88 106.738 112.404C107.372 114.934 108.874 120.96 107.315 123.53C103.595 129.665 95.5315 128.067 89.7326 129.149C84.9335 130.044 80.6155 131.434 75.929 132.839C69.5884 134.741 64.3118 138.421 60.7083 144.352C58.111 148.626 56.0747 152.08 55.6172 157.241C55.2876 160.96 53.8287 166.931 57.0343 169.8C65.3438 177.239 75.3571 179.763 86.2948 178.806C88.9802 178.572 92.8939 176.341 95.1911 174.978C97.8352 173.41 100.257 171.703 102.145 169.112C105.859 164.015 103.416 155.654 100.02 151.072C97.2389 147.32 93.2396 144.849 89.1553 142.644C86.8076 141.377 84.4311 140.165 82.0698 138.926C78.9221 137.274 76.9994 133.846 74.1445 131.738C70.1846 128.813 66.542 122.013 65.0645 117.361" stroke="white" stroke-width="3" stroke-linecap="round" stroke-linejoin="round"/>
<path d="M80.7566 313.508C76.3752 313.508 72.406 313.835 68.2731 312.279C64.3955 310.819 61.7312 308.083 59.6026 304.44C58.021 301.733 57.7028 296.958 58.2446 293.842C58.8189 290.538 62.2594 289.123 64.7736 287.833C71.6513 284.305 79.0044 281.059 86.7633 281.059C91.0653 281.059 95.5874 280.683 99.7952 281.824C103.419 282.807 108.323 284.211 111.312 286.577C114.927 289.438 116.489 299.797 113.193 303.675C111.749 305.375 109.832 305.688 108.022 306.871C105.937 308.234 103.167 309.808 100.866 310.668C96.5842 312.267 93.064 314 88.3825 314C85.6838 314 82.9852 314 80.2865 314" stroke="white" stroke-width="3" stroke-linecap="round" stroke-linejoin="round"/>
<path d="M78.6757 315C86.4976 315 94.5797 315.119 102.123 317.466C105.57 318.538 116 321.947 116 326.836C116 331.487 114.235 335.572 113.607 340.096C113.199 343.039 112.092 346.737 109.779 348.644C106.37 351.455 103.502 354.012 99.5177 356.042C93.0762 359.323 85.064 359.719 77.9579 360.37C71.4874 360.963 64.865 361.18 58.3653 360.836C53.2272 360.565 50.8847 355.256 49.752 350.754C48.8713 347.253 49.0076 343.736 49.0076 340.151C49.0076 336.594 52.3395 332.813 54.484 330.178C58.2384 325.565 64.1093 318.165 70.3282 317C71.858 316.713 80.329 316.524 81.0683 315" stroke="white" stroke-width="3" stroke-linecap="round" stroke-linejoin="round"/>
<path d="M436.354 138.354C436.549 138.158 436.549 137.842 436.354 137.646L433.172 134.464C432.976 134.269 432.66 134.269 432.464 134.464C432.269 134.66 432.269 134.976 432.464 135.172L435.293 138L432.464 140.828C432.269 141.024 432.269 141.34 432.464 141.536C432.66 141.731 432.976 141.731 433.172 141.536L436.354 138.354ZM148 138.5H436V137.5H148V138.5Z" fill="black"/>
<path d="M502.354 318.354C502.549 318.158 502.549 317.842 502.354 317.646L499.172 314.464C498.976 314.269 498.66 314.269 498.464 314.464C498.269 314.66 498.269 314.976 498.464 315.172L501.293 318L498.464 320.828C498.269 321.024 498.269 321.34 498.464 321.536C498.66 321.731 498.976 321.731 499.172 321.536L502.354 318.354ZM148 318.5H502V317.5H148V318.5Z" fill="black"/>
</svg>
