<svg width="348" height="568" viewBox="0 0 348 568" fill="none" xmlns="http://www.w3.org/2000/svg">
<g clip-path="url(#clip0)">
<path d="M23.2203 35.7773L175.147 318.431Z" fill="black"/>
<path d="M23.2203 35.7773L175.147 318.431" stroke="#505050" stroke-width="0.588861"/>
<path d="M23.2203 82.8862L175.147 318.431Z" fill="black"/>
<path d="M23.2203 82.8862L175.147 318.431" stroke="#505050" stroke-width="0.588861"/>
<path d="M23.2203 129.995L175.147 318.431Z" fill="black"/>
<path d="M23.2203 129.995L175.147 318.431" stroke="#505050" stroke-width="0.588861"/>
<path d="M23.2203 177.104L175.147 318.431Z" fill="black"/>
<path d="M23.2203 177.104L175.147 318.431" stroke="#505050" stroke-width="0.588861"/>
<path d="M23.2203 224.213L175.147 318.431Z" fill="black"/>
<path d="M23.2203 224.213L175.147 318.431" stroke="#505050" stroke-width="0.588861"/>
<path d="M23.2203 271.322L175.147 318.431Z" fill="black"/>
<path d="M23.2203 271.322L175.147 318.431" stroke="#505050" stroke-width="0.588861"/>
<path d="M23.2203 318.431H175.147Z" fill="black"/>
<path d="M23.2203 318.431H175.147" stroke="#505050" stroke-width="0.588861"/>
<path d="M23.2203 365.54L175.147 318.431Z" fill="black"/>
<path d="M23.2203 365.54L175.147 318.431" stroke="#505050" stroke-width="0.588861"/>
<path d="M175.146 271.322L327.073 35.7773Z" fill="black"/>
<path d="M175.146 271.322L327.073 35.7773" stroke="#505050" stroke-width="0.588861"/>
<path d="M175.146 271.322L327.073 82.8862Z" fill="black"/>
<path d="M175.146 271.322L327.073 82.8862" stroke="#505050" stroke-width="0.588861"/>
<path d="M175.146 318.431L327.073 35.7773Z" fill="black"/>
<path d="M175.146 318.431L327.073 35.7773" stroke="#505050" stroke-width="0.588861"/>
<path d="M175.146 318.431L327.073 82.8862Z" fill="black"/>
<path d="M175.146 318.431L327.073 82.8862" stroke="#505050" stroke-width="0.588861"/>
<path d="M23.2203 35.7773L175.147 271.322Z" fill="black"/>
<path d="M23.2203 35.7773L175.147 271.322" stroke="#505050" stroke-width="0.588861"/>
<path d="M23.2203 82.8862L175.147 271.322Z" fill="black"/>
<path d="M23.2203 82.8862L175.147 271.322" stroke="#505050" stroke-width="0.588861"/>
<path d="M23.2203 129.995L175.147 271.322Z" fill="black"/>
<path d="M23.2203 129.995L175.147 271.322" stroke="#505050" stroke-width="0.588861"/>
<path d="M23.2203 177.104L175.147 271.322Z" fill="black"/>
<path d="M23.2203 177.104L175.147 271.322" stroke="#505050" stroke-width="0.588861"/>
<path d="M23.2203 224.213L175.147 271.322Z" fill="black"/>
<path d="M23.2203 224.213L175.147 271.322" stroke="#505050" stroke-width="0.588861"/>
<path d="M23.2203 271.322H175.147Z" fill="black"/>
<path d="M23.2203 271.322H175.147" stroke="#505050" stroke-width="0.588861"/>
<path d="M23.2203 318.431L175.147 271.322Z" fill="black"/>
<path d="M23.2203 318.431L175.147 271.322" stroke="#505050" stroke-width="0.588861"/>
<path d="M23.2203 365.54L175.147 271.322Z" fill="black"/>
<path d="M23.2203 365.54L175.147 271.322" stroke="#505050" stroke-width="0.588861"/>
<path d="M23.2203 412.649L175.147 271.322Z" fill="black"/>
<path d="M23.2203 412.649L175.147 271.322" stroke="#505050" stroke-width="0.588861"/>
<path d="M23.2203 412.648L175.147 318.431Z" fill="black"/>
<path d="M23.2203 412.648L175.147 318.431" stroke="#505050" stroke-width="0.588861"/>
<path d="M23.2203 459.757L175.147 271.322Z" fill="black"/>
<path d="M23.2203 459.757L175.147 271.322" stroke="#505050" stroke-width="0.588861"/>
<path d="M23.2203 459.757L175.147 318.431Z" fill="black"/>
<path d="M23.2203 459.757L175.147 318.431" stroke="#505050" stroke-width="0.588861"/>
<path d="M23.2203 506.866L175.147 271.322Z" fill="black"/>
<path d="M23.2203 506.866L175.147 271.322" stroke="#505050" stroke-width="0.588861"/>
<path d="M23.2203 506.866L175.147 318.431Z" fill="black"/>
<path d="M23.2203 506.866L175.147 318.431" stroke="#505050" stroke-width="0.588861"/>
<path d="M23.2203 553.975L175.147 271.322Z" fill="black"/>
<path d="M23.2203 553.975L175.147 271.322" stroke="#505050" stroke-width="0.588861"/>
<path d="M23.2203 553.975L175.147 318.431Z" fill="black"/>
<path d="M23.2203 553.975L175.147 318.431" stroke="#505050" stroke-width="0.588861"/>
<path d="M175.146 271.322L327.073 129.995Z" fill="black"/>
<path d="M175.146 271.322L327.073 129.995" stroke="#505050" stroke-width="0.588861"/>
<path d="M175.146 271.322L327.073 177.104Z" fill="black"/>
<path d="M175.146 271.322L327.073 177.104" stroke="#505050" stroke-width="0.588861"/>
<path d="M175.146 271.322L327.073 224.213Z" fill="black"/>
<path d="M175.146 271.322L327.073 224.213" stroke="#505050" stroke-width="0.588861"/>
<path d="M175.146 271.322H327.073Z" fill="black"/>
<path d="M175.146 271.322H327.073" stroke="#505050" stroke-width="0.588861"/>
<path d="M175.146 318.431L327.073 129.995Z" fill="black"/>
<path d="M175.146 318.431L327.073 129.995" stroke="#505050" stroke-width="0.588861"/>
<path d="M175.146 318.431L327.073 177.104Z" fill="black"/>
<path d="M175.146 318.431L327.073 177.104" stroke="#505050" stroke-width="0.588861"/>
<path d="M175.146 318.431L327.073 224.213Z" fill="black"/>
<path d="M175.146 318.431L327.073 224.213" stroke="#505050" stroke-width="0.588861"/>
<path d="M175.146 318.431L327.073 271.322Z" fill="black"/>
<path d="M175.146 318.431L327.073 271.322" stroke="#505050" stroke-width="0.588861"/>
<path d="M175.146 271.322L327.073 318.431Z" fill="black"/>
<path d="M175.146 271.322L327.073 318.431" stroke="#505050" stroke-width="0.588861"/>
<path d="M175.146 271.322L327.073 365.54Z" fill="black"/>
<path d="M175.146 271.322L327.073 365.54" stroke="#505050" stroke-width="0.588861"/>
<path d="M175.146 271.322L327.073 412.649Z" fill="black"/>
<path d="M175.146 271.322L327.073 412.649" stroke="#505050" stroke-width="0.588861"/>
<path d="M175.146 271.322L327.073 459.757Z" fill="black"/>
<path d="M175.146 271.322L327.073 459.757" stroke="#505050" stroke-width="0.588861"/>
<path d="M175.146 271.322L327.073 506.866Z" fill="black"/>
<path d="M175.146 271.322L327.073 506.866" stroke="#505050" stroke-width="0.588861"/>
<path d="M175.146 271.322L327.073 553.975Z" fill="black"/>
<path d="M175.146 271.322L327.073 553.975" stroke="#505050" stroke-width="0.588861"/>
<path d="M175.146 318.431H327.073Z" fill="black"/>
<path d="M175.146 318.431H327.073" stroke="#505050" stroke-width="0.588861"/>
<path d="M175.146 318.431L327.073 365.54Z" fill="black"/>
<path d="M175.146 318.431L327.073 365.54" stroke="#505050" stroke-width="0.588861"/>
<path d="M175.146 318.431L327.073 412.648Z" fill="black"/>
<path d="M175.146 318.431L327.073 412.648" stroke="#505050" stroke-width="0.588861"/>
<path d="M175.146 318.431L327.073 459.757Z" fill="black"/>
<path d="M175.146 318.431L327.073 459.757" stroke="#505050" stroke-width="0.588861"/>
<path d="M175.146 318.431L327.073 506.866Z" fill="black"/>
<path d="M175.146 318.431L327.073 506.866" stroke="#505050" stroke-width="0.588861"/>
<path d="M175.146 318.431L327.073 553.975Z" fill="black"/>
<path d="M175.146 318.431L327.073 553.975" stroke="#505050" stroke-width="0.588861"/>
<path d="M23.2203 47.5545C29.7247 47.5545 34.9976 42.2816 34.9976 35.7772C34.9976 29.2728 29.7247 24 23.2203 24C16.716 24 11.4431 29.2728 11.4431 35.7772C11.4431 42.2816 16.716 47.5545 23.2203 47.5545Z" fill="white" stroke="#333333" stroke-width="1.17772"/>
<path d="M23.2203 94.6633C29.7247 94.6633 34.9976 89.3905 34.9976 82.8861C34.9976 76.3817 29.7247 71.1089 23.2203 71.1089C16.716 71.1089 11.4431 76.3817 11.4431 82.8861C11.4431 89.3905 16.716 94.6633 23.2203 94.6633Z" fill="white" stroke="#333333" stroke-width="1.17772"/>
<path d="M23.2203 141.772C29.7247 141.772 34.9976 136.499 34.9976 129.995C34.9976 123.491 29.7247 118.218 23.2203 118.218C16.716 118.218 11.4431 123.491 11.4431 129.995C11.4431 136.499 16.716 141.772 23.2203 141.772Z" fill="white" stroke="#333333" stroke-width="1.17772"/>
<path d="M23.2203 188.881C29.7247 188.881 34.9976 183.608 34.9976 177.104C34.9976 170.6 29.7247 165.327 23.2203 165.327C16.716 165.327 11.4431 170.6 11.4431 177.104C11.4431 183.608 16.716 188.881 23.2203 188.881Z" fill="white" stroke="#333333" stroke-width="1.17772"/>
<path d="M23.2203 235.99C29.7247 235.99 34.9976 230.717 34.9976 224.213C34.9976 217.708 29.7247 212.436 23.2203 212.436C16.716 212.436 11.4431 217.708 11.4431 224.213C11.4431 230.717 16.716 235.99 23.2203 235.99Z" fill="white" stroke="#333333" stroke-width="1.17772"/>
<path d="M23.2203 283.099C29.7247 283.099 34.9976 277.826 34.9976 271.322C34.9976 264.818 29.7247 259.545 23.2203 259.545C16.716 259.545 11.4431 264.818 11.4431 271.322C11.4431 277.826 16.716 283.099 23.2203 283.099Z" fill="white" stroke="#333333" stroke-width="1.17772"/>
<path d="M23.2203 330.208C29.7247 330.208 34.9976 324.935 34.9976 318.431C34.9976 311.926 29.7247 306.654 23.2203 306.654C16.716 306.654 11.4431 311.926 11.4431 318.431C11.4431 324.935 16.716 330.208 23.2203 330.208Z" fill="white" stroke="#333333" stroke-width="1.17772"/>
<path d="M23.2203 377.317C29.7247 377.317 34.9976 372.044 34.9976 365.54C34.9976 359.035 29.7247 353.762 23.2203 353.762C16.716 353.762 11.4431 359.035 11.4431 365.54C11.4431 372.044 16.716 377.317 23.2203 377.317Z" fill="white" stroke="#333333" stroke-width="1.17772"/>
<path d="M23.2203 424.426C29.7247 424.426 34.9976 419.153 34.9976 412.649C34.9976 406.144 29.7247 400.871 23.2203 400.871C16.716 400.871 11.4431 406.144 11.4431 412.649C11.4431 419.153 16.716 424.426 23.2203 424.426Z" fill="white" stroke="#333333" stroke-width="1.17772"/>
<path d="M23.2203 471.535C29.7247 471.535 34.9976 466.262 34.9976 459.757C34.9976 453.253 29.7247 447.98 23.2203 447.98C16.716 447.98 11.4431 453.253 11.4431 459.757C11.4431 466.262 16.716 471.535 23.2203 471.535Z" fill="white" stroke="#333333" stroke-width="1.17772"/>
<path d="M23.2203 518.644C29.7247 518.644 34.9976 513.371 34.9976 506.866C34.9976 500.362 29.7247 495.089 23.2203 495.089C16.716 495.089 11.4431 500.362 11.4431 506.866C11.4431 513.371 16.716 518.644 23.2203 518.644Z" fill="white" stroke="#333333" stroke-width="1.17772"/>
<path d="M23.2203 565.752C29.7247 565.752 34.9976 560.48 34.9976 553.975C34.9976 547.471 29.7247 542.198 23.2203 542.198C16.716 542.198 11.4431 547.471 11.4431 553.975C11.4431 560.48 16.716 565.752 23.2203 565.752Z" fill="white" stroke="#333333" stroke-width="1.17772"/>
<path d="M175.147 283.099C181.651 283.099 186.924 277.826 186.924 271.322C186.924 264.818 181.651 259.545 175.147 259.545C168.642 259.545 163.369 264.818 163.369 271.322C163.369 277.826 168.642 283.099 175.147 283.099Z" fill="white" stroke="#333333" stroke-width="1.17772"/>
<path d="M175.147 330.208C181.651 330.208 186.924 324.935 186.924 318.431C186.924 311.926 181.651 306.654 175.147 306.654C168.642 306.654 163.369 311.926 163.369 318.431C163.369 324.935 168.642 330.208 175.147 330.208Z" fill="white" stroke="#333333" stroke-width="1.17772"/>
<path d="M327.073 47.5545C333.577 47.5545 338.85 42.2816 338.85 35.7772C338.85 29.2728 333.577 24 327.073 24C320.568 24 315.296 29.2728 315.296 35.7772C315.296 42.2816 320.568 47.5545 327.073 47.5545Z" fill="white" stroke="#333333" stroke-width="1.17772"/>
<path d="M327.073 94.6633C333.577 94.6633 338.85 89.3905 338.85 82.8861C338.85 76.3817 333.577 71.1089 327.073 71.1089C320.568 71.1089 315.296 76.3817 315.296 82.8861C315.296 89.3905 320.568 94.6633 327.073 94.6633Z" fill="white" stroke="#333333" stroke-width="1.17772"/>
<path d="M327.073 141.772C333.577 141.772 338.85 136.499 338.85 129.995C338.85 123.491 333.577 118.218 327.073 118.218C320.568 118.218 315.296 123.491 315.296 129.995C315.296 136.499 320.568 141.772 327.073 141.772Z" fill="white" stroke="#333333" stroke-width="1.17772"/>
<path d="M327.073 188.881C333.577 188.881 338.85 183.608 338.85 177.104C338.85 170.6 333.577 165.327 327.073 165.327C320.568 165.327 315.296 170.6 315.296 177.104C315.296 183.608 320.568 188.881 327.073 188.881Z" fill="white" stroke="#333333" stroke-width="1.17772"/>
<path d="M327.073 235.99C333.577 235.99 338.85 230.717 338.85 224.213C338.85 217.708 333.577 212.436 327.073 212.436C320.568 212.436 315.296 217.708 315.296 224.213C315.296 230.717 320.568 235.99 327.073 235.99Z" fill="white" stroke="#333333" stroke-width="1.17772"/>
<path d="M327.073 283.099C333.577 283.099 338.85 277.826 338.85 271.322C338.85 264.818 333.577 259.545 327.073 259.545C320.568 259.545 315.296 264.818 315.296 271.322C315.296 277.826 320.568 283.099 327.073 283.099Z" fill="white" stroke="#333333" stroke-width="1.17772"/>
<path d="M327.073 330.208C333.577 330.208 338.85 324.935 338.85 318.431C338.85 311.926 333.577 306.654 327.073 306.654C320.568 306.654 315.296 311.926 315.296 318.431C315.296 324.935 320.568 330.208 327.073 330.208Z" fill="white" stroke="#333333" stroke-width="1.17772"/>
<path d="M327.073 377.317C333.577 377.317 338.85 372.044 338.85 365.54C338.85 359.035 333.577 353.762 327.073 353.762C320.568 353.762 315.296 359.035 315.296 365.54C315.296 372.044 320.568 377.317 327.073 377.317Z" fill="white" stroke="#333333" stroke-width="1.17772"/>
<path d="M327.073 424.426C333.577 424.426 338.85 419.153 338.85 412.649C338.85 406.144 333.577 400.871 327.073 400.871C320.568 400.871 315.296 406.144 315.296 412.649C315.296 419.153 320.568 424.426 327.073 424.426Z" fill="white" stroke="#333333" stroke-width="1.17772"/>
<path d="M327.073 471.535C333.577 471.535 338.85 466.262 338.85 459.757C338.85 453.253 333.577 447.98 327.073 447.98C320.568 447.98 315.296 453.253 315.296 459.757C315.296 466.262 320.568 471.535 327.073 471.535Z" fill="white" stroke="#333333" stroke-width="1.17772"/>
<path d="M327.073 518.644C333.577 518.644 338.85 513.371 338.85 506.866C338.85 500.362 333.577 495.089 327.073 495.089C320.568 495.089 315.296 500.362 315.296 506.866C315.296 513.371 320.568 518.644 327.073 518.644Z" fill="white" stroke="#333333" stroke-width="1.17772"/>
<path d="M327.073 565.752C333.577 565.752 338.85 560.48 338.85 553.975C338.85 547.471 333.577 542.198 327.073 542.198C320.568 542.198 315.296 547.471 315.296 553.975C315.296 560.48 320.568 565.752 327.073 565.752Z" fill="white" stroke="#333333" stroke-width="1.17772"/>
</g>
<defs>
<clipPath id="clip0">
<rect width="348" height="568" fill="white"/>
</clipPath>
</defs>
</svg>
